<svg width="65" height="65" viewBox="0 0 65 65" fill="none" xmlns="http://www.w3.org/2000/svg">
<g clip-path="url(#clip0_649_11415)">
<path d="M32.5015 64.224C50.0222 64.224 64.2256 50.0207 64.2256 32.4999C64.2256 14.9792 50.0222 0.775818 32.5015 0.775818C14.9807 0.775818 0.777344 14.9792 0.777344 32.4999C0.777344 50.0207 14.9807 64.224 32.5015 64.224Z" fill="#53AEF9"/>
<path d="M32.4999 65.0002C14.5793 65.0002 0 50.4209 0 32.5003C0 14.5796 14.5793 0.000488281 32.4999 0.000488281C50.4205 0.000488281 65 14.5798 65 32.5004C65 50.421 50.4205 65.0002 32.4999 65.0002ZM32.4999 1.55212C15.435 1.55212 1.55163 15.4355 1.55163 32.5003C1.55163 49.565 15.435 63.4485 32.4999 63.4485C49.565 63.4485 63.4484 49.5651 63.4484 32.5003C63.4484 15.4354 49.565 1.55212 32.4999 1.55212Z" fill="#333333"/>
<path d="M32.4988 60.159C47.7745 60.159 60.1578 47.7757 60.1578 32.5C60.1578 17.2244 47.7745 4.84106 32.4988 4.84106C17.2232 4.84106 4.83984 17.2244 4.83984 32.5C4.83984 47.7757 17.2232 60.159 32.4988 60.159Z" fill="#20505B"/>
<path d="M32.5012 60.9348C16.8222 60.9348 4.06641 48.179 4.06641 32.5C4.06641 16.8211 16.8222 4.06525 32.5012 4.06525C48.1802 4.06525 60.936 16.8209 60.936 32.5C60.936 48.1792 48.1802 60.9348 32.5012 60.9348ZM32.5012 5.61688C17.6778 5.61688 5.61804 17.6767 5.61804 32.5C5.61804 47.3236 17.6778 59.3832 32.5012 59.3832C47.3247 59.3832 59.3844 47.3234 59.3844 32.5C59.3844 17.6767 47.3247 5.61688 32.5012 5.61688Z" fill="#333333"/>
<path d="M49.0148 32.1925C46.9142 26.5576 48.2362 27.8798 42.6016 25.7793C48.2362 23.6789 46.9142 25.0007 49.0148 19.3661C51.1152 25.0007 49.7932 23.6787 55.428 25.7793C49.7932 27.8798 51.1154 26.5578 49.0148 32.1925Z" fill="#FCBC1D"/>
<path d="M55.4262 26.5554C55.3362 26.5554 55.2446 26.5396 55.1554 26.5064C54.6921 26.3337 54.2331 26.1682 53.711 25.9854C53.3066 25.8437 53.0936 25.4012 53.2352 24.9967C53.3768 24.5925 53.8193 24.3793 54.2238 24.5208C54.7558 24.7071 55.224 24.876 55.6972 25.0524C56.0988 25.2021 56.3028 25.6488 56.1531 26.0504C56.0369 26.3626 55.741 26.5554 55.4262 26.5554Z" fill="#333333"/>
<path d="M49.0133 32.9683C48.6893 32.9683 48.3994 32.7671 48.2863 32.4636C47.9682 31.6107 47.7262 30.9101 47.5314 30.347C47.1128 29.1363 46.9027 28.5286 46.5834 28.2092C46.2641 27.8897 45.6563 27.6796 44.4457 27.2611C43.8828 27.0665 43.1821 26.8243 42.3291 26.5062C42.0255 26.3931 41.8242 26.1033 41.8242 25.7793C41.8242 25.4553 42.0255 25.1655 42.3291 25.0524C43.1819 24.7344 43.8826 24.4922 44.4456 24.2976C45.6563 23.879 46.2641 23.6689 46.5834 23.3494C46.9027 23.03 47.1128 22.4223 47.5314 21.2116C47.726 20.6487 47.9682 19.948 48.2863 19.095C48.3994 18.7915 48.6893 18.5903 49.0133 18.5903C49.3372 18.5903 49.6271 18.7915 49.7404 19.095C50.0583 19.948 50.3003 20.6487 50.4951 21.2116C51.0974 22.9539 51.2288 23.2919 51.7975 23.6052C52.1727 23.812 52.3094 24.2838 52.1026 24.659C51.8959 25.0341 51.4243 25.1709 51.0487 24.9641C49.9394 24.3529 49.6541 23.5273 49.0286 21.7185C49.0235 21.7038 49.0185 21.6892 49.0133 21.6743C49.0081 21.6892 49.003 21.7039 48.9979 21.7187C48.007 24.5842 47.818 24.7732 44.9525 25.7639C44.9377 25.7691 44.9231 25.774 44.9083 25.7793C44.9233 25.7844 44.9379 25.7895 44.9526 25.7947C47.8182 26.7854 48.0072 26.9744 48.9979 29.8399C49.0029 29.8547 49.008 29.8693 49.0133 29.8842C49.0184 29.8693 49.0235 29.8545 49.0286 29.8398C50.0193 26.9742 50.2083 26.7852 53.0739 25.7945C53.6291 25.6026 54.3199 25.3638 55.1554 25.0524C55.5567 24.9028 56.0035 25.107 56.1534 25.5082C56.303 25.9096 56.0988 26.3565 55.6974 26.5062C54.8446 26.8242 54.1439 27.0664 53.581 27.261C52.3702 27.6796 51.7626 27.8897 51.4433 28.209C51.1239 28.5283 50.9137 29.1361 50.4952 30.3467C50.3005 30.9096 50.0584 31.6104 49.7405 32.4633C49.6271 32.7671 49.3372 32.9683 49.0133 32.9683Z" fill="#333333"/>
<path d="M38.7228 55.781C36.2509 49.1499 37.8065 50.7059 31.1758 48.2341C37.8065 45.7622 36.2509 47.3179 38.7228 40.6871C41.1945 47.3179 39.6389 45.7621 46.2696 48.2341C39.639 50.706 41.1947 49.1504 38.7228 55.781Z" fill="#FCBC1D"/>
<path d="M38.7213 56.5568C38.3973 56.5568 38.1074 56.3555 37.9942 56.052C37.6207 55.05 37.336 54.2262 37.1071 53.5644C36.6076 52.1197 36.3569 51.3946 35.9589 50.9965C35.5607 50.5983 34.8356 50.3476 33.3911 49.8483C32.7291 49.6194 31.9055 49.3347 30.9032 48.961C30.5997 48.8479 30.3984 48.5581 30.3984 48.2341C30.3984 47.9101 30.5997 47.6203 30.9032 47.5072C31.9052 47.1337 32.7288 46.8488 33.3906 46.6201C34.8353 46.1206 35.5604 45.87 35.9587 45.4717C36.3569 45.0736 36.6078 44.3485 37.1071 42.9038C37.336 42.242 37.6207 41.4184 37.9943 40.4162C38.1074 40.1127 38.3973 39.9114 38.7213 39.9114C39.0452 39.9114 39.3351 40.1127 39.4482 40.4162C39.8217 41.4181 40.1064 42.2415 40.3353 42.9033C40.6504 43.8146 40.878 44.4729 41.1029 44.9166C41.2967 45.2987 41.1441 45.7656 40.762 45.9594C40.3799 46.1532 39.9128 46.0005 39.7191 45.6184C39.4462 45.0802 39.204 44.3798 38.8688 43.4105C38.8221 43.2754 38.7731 43.1334 38.7214 42.9846C38.6697 43.1336 38.6205 43.2757 38.5738 43.411C37.4174 46.7557 37.2427 46.9304 33.8978 48.0869C33.7627 48.1336 33.6207 48.1827 33.4718 48.2344C33.6209 48.2861 33.763 48.3353 33.8983 48.3821C37.2427 49.5384 37.4176 49.7131 38.5738 53.0578C38.6207 53.193 38.6697 53.3351 38.7214 53.4841C38.7732 53.3349 38.8223 53.1928 38.8691 53.0575C40.0254 49.7131 40.2003 49.5382 43.5448 48.382C43.6801 48.3353 43.8221 48.2861 43.9712 48.2343C43.8219 48.1824 43.6795 48.1332 43.5442 48.0864C43.0101 47.9017 42.5487 47.7422 42.1628 47.5942C41.7628 47.4407 41.5628 46.9922 41.7161 46.592C41.8697 46.1918 42.3186 45.992 42.7183 46.1454C43.0801 46.2842 43.5087 46.4323 44.0513 46.6199C44.7132 46.8488 45.537 47.1337 46.5395 47.5073C46.843 47.6204 47.0442 47.9103 47.0442 48.2343C47.0442 48.5582 46.843 48.8481 46.5393 48.9612C45.5373 49.3347 44.7137 49.6196 44.0519 49.8483C42.6073 50.3477 41.8822 50.5983 41.4839 50.9965C41.0856 51.3946 40.835 52.1197 40.3357 53.5643C40.1069 54.2262 39.822 55.0498 39.4483 56.052C39.3351 56.3555 39.0452 56.5568 38.7213 56.5568Z" fill="#333333"/>
<path d="M13.9813 45.8402C12.2026 41.0688 13.3221 42.1883 8.55078 40.4096C13.3222 38.631 12.2027 39.7503 13.9813 34.9791C15.76 39.7503 14.6406 38.631 19.4119 40.4096C14.6405 42.1883 15.76 41.0689 13.9813 45.8402Z" fill="#FCBC1D"/>
<path d="M13.9797 46.616C13.6557 46.616 13.3658 46.4148 13.2527 46.1113C12.9831 45.3878 12.7776 44.7937 12.6127 44.3164C12.2752 43.3401 12.0893 42.8024 11.8381 42.5512C11.587 42.3002 11.0492 42.1143 10.0731 41.7768C9.59583 41.6119 9.00171 41.4064 8.27818 41.1368C7.97468 41.0236 7.77344 40.7338 7.77344 40.4098C7.77344 40.0858 7.97468 39.796 8.27818 39.6829C9.00171 39.4132 9.59568 39.2078 10.073 39.0428C11.0492 38.7052 11.5869 38.5193 11.8381 38.2683C12.0893 38.017 12.2752 37.4794 12.6127 36.5031C12.7776 36.0258 12.9831 35.4317 13.2527 34.7082C13.3658 34.4047 13.6557 34.2034 13.9797 34.2034C14.3036 34.2034 14.5935 34.4047 14.7066 34.7082C14.9763 35.4317 15.1817 36.0258 15.3467 36.5031C15.6841 37.4794 15.8702 38.017 16.1212 38.2681C16.3724 38.5193 16.9101 38.7052 17.8864 39.0427C18.3637 39.2076 18.9576 39.413 19.6812 39.6827C19.9847 39.7958 20.1859 40.0857 20.1859 40.4097C20.1859 40.7336 19.9847 41.0235 19.6812 41.1366C18.9576 41.4063 18.3637 41.6117 17.8864 41.7767C16.9101 42.1141 16.3724 42.3 16.1214 42.5511C15.8702 42.8023 15.6843 43.3399 15.3468 44.3161C15.1817 44.7935 14.9763 45.3875 14.7066 46.1111C14.5933 46.4148 14.3035 46.616 13.9797 46.616ZM10.8655 40.4098C12.981 41.152 13.2374 41.4083 13.9795 43.5238C14.7217 41.4083 14.978 41.1518 17.0935 40.4098C14.9778 39.6675 14.7217 39.4112 13.9795 37.2957C13.2375 39.411 12.9809 39.6678 10.8655 40.4098Z" fill="#333333"/>
<path d="M19.7999 23.2733C17.6993 17.6384 19.0213 18.9605 13.3867 16.8601C19.0213 14.7596 17.6993 16.0814 19.7999 10.4468C21.9004 16.0814 20.5784 14.7595 26.2132 16.8601C20.5784 18.9605 21.9005 17.6385 19.7999 23.2733Z" fill="#FCBC1D"/>
<path d="M19.7984 24.0489C19.4744 24.0489 19.1846 23.8477 19.0715 23.5442C18.7535 22.6913 18.5113 21.9907 18.3166 21.4276C17.898 20.2169 17.6879 19.6092 17.3686 19.2898C17.0492 18.9703 16.4414 18.7602 15.2309 18.3417C14.6679 18.1471 13.9672 17.9049 13.1141 17.5868C12.8106 17.4737 12.6094 17.1839 12.6094 16.8599C12.6094 16.5359 12.8106 16.2461 13.1141 16.133C13.9671 15.815 14.6676 15.5728 15.2306 15.3781C16.4413 14.9595 17.0489 14.7494 17.3684 14.43C17.6879 14.1107 17.898 13.5029 18.3166 12.2924C18.5112 11.7294 18.7534 11.0287 19.0715 10.1758C19.1846 9.87227 19.4746 9.67102 19.7984 9.67102C20.1224 9.67102 20.4122 9.87227 20.5254 10.1758C20.7932 10.8943 21.0098 11.5116 21.1862 12.0208C21.3265 12.4256 21.112 12.8677 20.7074 13.008C20.3689 13.1251 20.0056 12.9949 19.8128 12.7133C19.8029 12.7423 19.793 12.771 19.7831 12.7994C18.7923 15.665 18.6032 15.854 15.7376 16.8447C15.723 16.8498 15.7083 16.8548 15.6934 16.8601C15.7083 16.8652 15.723 16.8703 15.7378 16.8754C18.6033 17.8661 18.7923 18.0551 19.7831 20.9207C19.7882 20.9354 19.7931 20.9502 19.7984 20.9651C19.8035 20.9502 19.8087 20.9354 19.8138 20.9207C20.8045 18.0551 20.9936 17.8661 23.8592 16.8754C23.8738 16.8705 23.8885 16.8653 23.9033 16.8602C23.8885 16.8551 23.8739 16.8501 23.8594 16.845C22.2866 16.3013 21.4971 16.0284 20.9077 15.2749C20.6436 14.9374 20.7032 14.4499 21.0407 14.1858C21.3781 13.9217 21.8657 13.9815 22.1297 14.3188C22.423 14.6937 22.9008 14.8718 24.3664 15.3786C24.9292 15.5731 25.6299 15.8153 26.4827 16.1333C26.7862 16.2464 26.9874 16.5362 26.9874 16.8602C26.9874 17.1842 26.7862 17.474 26.4827 17.5872C25.6298 17.9051 24.9292 18.1473 24.3663 18.3419C23.1555 18.7605 22.5479 18.9706 22.2284 19.2899C21.9089 19.6092 21.6989 20.217 21.2804 21.4276C21.0858 21.9905 20.8436 22.6913 20.5255 23.5442C20.4122 23.8475 20.1224 24.0489 19.7984 24.0489Z" fill="#333333"/>
<path d="M26.725 27.6447C26.2966 27.6447 25.9492 27.2973 25.9492 26.8689V21.5779C25.9492 21.1495 26.2966 20.8021 26.725 20.8021C27.1534 20.8021 27.5009 21.1495 27.5009 21.5779V26.8689C27.5009 27.2973 27.1534 27.6447 26.725 27.6447Z" fill="#FCBC1D"/>
<path d="M29.3714 24.9993H24.0805C23.6521 24.9993 23.3047 24.6519 23.3047 24.2234C23.3047 23.795 23.6521 23.4476 24.0805 23.4476H29.3714C29.7998 23.4476 30.1472 23.795 30.1472 24.2234C30.1472 24.6519 29.7998 24.9993 29.3714 24.9993Z" fill="#FCBC1D"/>
<path d="M43.2719 19.5751C42.8433 19.5751 42.4961 19.2277 42.4961 18.7993V15.4736C42.4961 15.0452 42.8433 14.6978 43.2719 14.6978C43.7005 14.6978 44.0477 15.0452 44.0477 15.4736V18.7994C44.0477 19.2278 43.7003 19.5751 43.2719 19.5751Z" fill="#FCBC1D"/>
<path d="M44.9336 17.9124H41.6079C41.1793 17.9124 40.832 17.5649 40.832 17.1365C40.832 16.7081 41.1793 16.3607 41.6079 16.3607H44.9336C45.3622 16.3607 45.7094 16.7081 45.7094 17.1365C45.7094 17.5649 45.3622 17.9124 44.9336 17.9124Z" fill="#FCBC1D"/>
<path d="M40.7136 56.4196C40.3946 56.4196 40.0959 56.2215 39.9826 55.9037C39.8389 55.5 40.0498 55.0563 40.4534 54.9127C41.1062 54.6802 41.7565 54.4158 42.3861 54.1269C42.7751 53.948 43.2361 54.1188 43.4148 54.5083C43.5936 54.8978 43.4229 55.3583 43.0334 55.537C42.3624 55.845 41.6694 56.1268 40.9738 56.3745C40.8878 56.405 40.8 56.4196 40.7136 56.4196Z" fill="white"/>
<path d="M46.347 53.5458C46.0996 53.5458 45.8567 53.4279 45.7063 53.2085C45.4639 52.855 45.5543 52.3722 45.9077 52.1299C52.4021 47.6796 56.2795 40.3413 56.2795 32.5001C56.2795 26.5824 54.083 20.9073 50.0945 16.5198C49.8064 16.2028 49.8298 15.712 50.1468 15.4239C50.4641 15.1356 50.9546 15.1591 51.2427 15.476C55.4912 20.1497 57.8311 26.1955 57.8311 32.4999C57.8311 40.853 53.7017 48.6698 46.7849 53.4097C46.6508 53.5018 46.498 53.5458 46.347 53.5458Z" fill="white"/>
<path d="M46.4521 13.0792C46.2997 13.0792 46.1456 13.0343 46.011 12.9409C44.6741 12.0144 43.2394 11.224 41.7466 10.5914C41.3522 10.4243 41.168 9.96892 41.3351 9.57449C41.5022 9.18007 41.9576 8.99573 42.3522 9.16284C43.9426 9.83672 45.471 10.6788 46.8948 11.6655C47.247 11.9095 47.3347 12.3929 47.0906 12.7451C46.9398 12.9625 46.6979 13.0792 46.4521 13.0792Z" fill="white"/>
</g>
<defs>
<clipPath id="clip0_649_11415">
<rect width="65" height="65" fill="white"/>
</clipPath>
</defs>
</svg>
