<svg width="65" height="65" viewBox="0 0 65 65" fill="none" xmlns="http://www.w3.org/2000/svg">
<path d="M60.5722 36.1062C60.5722 43.9614 57.3462 51.0615 52.1462 56.1562C48.3807 59.8477 43.5788 62.4847 38.2175 63.5935C36.3718 63.9768 34.4602 64.1775 32.5009 64.1775C32.0305 64.1775 31.5633 64.166 31.0994 64.143C16.4797 63.4241 4.79983 51.5188 4.43791 36.8087C4.43133 36.5981 4.42969 36.3875 4.42969 36.1753C4.42969 36.0569 4.42969 35.9384 4.43133 35.8216C4.50865 27.9681 7.81193 20.8878 13.0778 15.8391C16.812 12.2595 21.535 9.70142 26.7959 8.61732C27.954 8.37715 29.1384 8.20935 30.3443 8.11723C31.0566 8.06294 31.7755 8.03497 32.5009 8.03497C38.8196 8.03497 44.6497 10.1226 49.3414 13.6446C56.1602 18.7657 60.5722 26.9202 60.5722 36.1062Z" fill="#1AA5E2"/>
<path d="M44.7854 15.866C44.6363 15.866 44.4853 15.8253 44.3496 15.7404C43.3787 15.1323 42.3565 14.5899 41.3109 14.1284C40.8953 13.945 40.7071 13.4594 40.8906 13.0437C41.074 12.6283 41.5591 12.44 41.9753 12.6234C43.0926 13.1167 44.1853 13.6963 45.2228 14.3462C45.6078 14.5874 45.7244 15.0949 45.4832 15.48C45.3271 15.7291 45.0593 15.866 44.7854 15.866Z" fill="white"/>
<path d="M48.5844 54.9759C48.3646 54.9759 48.1455 54.8883 47.9836 54.7153C47.6732 54.3835 47.6906 53.863 48.0223 53.5527C52.8546 49.0316 55.6262 42.6559 55.6262 36.0602C55.6262 29.4266 52.9662 23.2524 48.136 18.6745C47.8063 18.362 47.7923 17.8415 48.1049 17.5116C48.4173 17.182 48.9378 17.1678 49.2676 17.4804C54.4289 22.372 57.2713 28.9703 57.2713 36.06C57.2713 43.1092 54.3099 49.9229 49.1462 54.7538C48.9876 54.9023 48.7858 54.9759 48.5844 54.9759Z" fill="white"/>
<path d="M45.1242 57.684C44.8549 57.684 44.591 57.552 44.4336 57.3092C44.1862 56.9282 44.2944 56.4187 44.6756 56.1713C45.0959 55.8986 45.5124 55.6092 45.9135 55.3114C46.2784 55.0407 46.7934 55.1172 47.0642 55.4819C47.335 55.8468 47.2586 56.3618 46.8938 56.6326C46.4652 56.9506 46.0201 57.2597 45.5713 57.551C45.433 57.641 45.2775 57.684 45.1242 57.684Z" fill="white"/>
<path d="M17.1989 21.8773H13.7444C13.29 21.8773 12.9219 21.509 12.9219 21.0548C12.9219 20.6006 13.29 20.2322 13.7444 20.2322H17.1989C17.6532 20.2322 18.0214 20.6006 18.0214 21.0548C18.0214 21.509 17.6532 21.8773 17.1989 21.8773Z" fill="#B4CBF9"/>
<path d="M31.0192 29.0329H27.5647C27.1104 29.0329 26.7422 28.6646 26.7422 28.2104C26.7422 27.7562 27.1104 27.3879 27.5647 27.3879H31.0192C31.4735 27.3879 31.8417 27.7562 31.8417 28.2104C31.8417 28.6646 31.4735 29.0329 31.0192 29.0329Z" fill="#B4CBF9"/>
<path d="M51.2534 29.0329H47.7991C47.3447 29.0329 46.9766 28.6646 46.9766 28.2104C46.9766 27.7562 47.3447 27.3879 47.7991 27.3879H51.2534C51.7077 27.3879 52.0759 27.7562 52.0759 28.2104C52.0759 28.6646 51.7077 29.0329 51.2534 29.0329Z" fill="#B4CBF9"/>
<path d="M39.4266 51.5957H37.0139C36.5596 51.5957 36.1914 51.2274 36.1914 50.7732C36.1914 50.319 36.5596 49.9507 37.0139 49.9507H39.4266C39.8809 49.9507 40.2491 50.319 40.2491 50.7732C40.2491 51.2274 39.8808 51.5957 39.4266 51.5957Z" fill="#B4CBF9"/>
<path d="M36.3953 41.425H33.9827C33.5283 41.425 33.1602 41.0567 33.1602 40.6025C33.1602 40.1483 33.5283 39.78 33.9827 39.78H36.3953C36.8497 39.78 37.2179 40.1483 37.2179 40.6025C37.2179 41.0567 36.8497 41.425 36.3953 41.425Z" fill="#B4CBF9"/>
<path d="M25.7822 51.9804H23.3694C22.915 51.9804 22.5469 51.6121 22.5469 51.1579C22.5469 50.7037 22.915 50.3353 23.3694 50.3353H25.7822C26.2366 50.3353 26.6047 50.7037 26.6047 51.1579C26.6047 51.6121 26.2366 51.9804 25.7822 51.9804Z" fill="#B4CBF9"/>
<path d="M23.3957 49.266H17.9671C17.5127 49.266 17.1445 48.8977 17.1445 48.4435C17.1445 47.9893 17.5127 47.621 17.9671 47.621H23.3957C23.8501 47.621 24.2183 47.9893 24.2183 48.4435C24.2183 48.8977 23.8501 49.266 23.3957 49.266Z" fill="#B4CBF9"/>
<path d="M14.19 49.266H12.7092C12.2549 49.266 11.8867 48.8977 11.8867 48.4435C11.8867 47.9893 12.2549 47.621 12.7092 47.621H14.19C14.6443 47.621 15.0125 47.9893 15.0125 48.4435C15.0125 48.8977 14.6443 49.266 14.19 49.266Z" fill="#B4CBF9"/>
<path d="M27.3181 31.9939H25.6077C25.1533 31.9939 24.7852 31.6256 24.7852 31.1714C24.7852 30.7172 25.1533 30.3489 25.6077 30.3489H27.3181C27.7724 30.3489 28.1406 30.7172 28.1406 31.1714C28.1406 31.6256 27.7724 31.9939 27.3181 31.9939Z" fill="#B4CBF9"/>
<path opacity="0.25" d="M38.2175 63.5935C38.2718 63.6067 38.3244 63.6182 38.3787 63.6297C36.4836 64.0327 34.5161 64.2466 32.5009 64.2466C29.2207 64.2466 26.0704 63.684 23.1439 62.6492C19.8603 61.4895 16.8565 59.7342 14.2638 57.515C8.39428 52.4943 4.62051 45.0948 4.43791 36.8087C4.43133 36.5981 4.42969 36.3875 4.42969 36.1753C4.42969 36.0569 4.42969 35.9384 4.43133 35.8216C4.52346 28.3876 7.50594 21.6478 12.3062 16.6781C12.5629 16.4133 12.8261 16.1533 13.0926 15.8983C13.0876 15.8786 13.081 15.8589 13.0778 15.8391C16.812 12.2595 21.535 9.70142 26.7959 8.61732C26.814 8.63706 26.8304 8.6568 26.8469 8.67654C28.6729 8.30312 30.5631 8.10406 32.5009 8.10406C34.5178 8.10406 36.4836 8.31957 38.3804 8.72425C36.7452 9.073 35.161 9.56159 33.6443 10.1801C31.8791 10.9023 30.2044 11.8005 28.64 12.8501C28.6745 13.1511 28.6959 13.4571 28.6959 13.768C28.6959 18.157 25.1377 21.7153 20.7487 21.7153C20.5677 21.7153 20.3884 21.707 20.2107 21.6955C17.6592 25.9233 16.1886 30.8782 16.1886 36.1753C16.1886 44.7165 20.0034 52.366 26.0227 57.515C28.6153 59.7342 31.6192 61.4895 34.9027 62.6492C35.9802 63.0309 37.0857 63.3467 38.2175 63.5935Z" fill="black"/>
<path d="M32.4991 65C32.0173 65 31.5321 64.988 31.0572 64.9645C15.6636 64.2074 3.60547 51.5314 3.60547 36.1062C3.60547 28.7748 6.35518 21.784 11.3478 16.4218C16.3144 11.0875 23.038 7.84692 30.2802 7.29714C31.0169 7.24104 31.7634 7.21259 32.4991 7.21259C38.8072 7.21259 44.8013 9.20936 49.8334 12.9869C53.3438 15.6234 56.2524 19.0777 58.2446 22.977C60.3336 27.066 61.393 31.4833 61.393 36.1064C61.393 43.935 58.3128 51.2643 52.72 56.7439C47.2883 62.0678 40.107 65 32.4991 65ZM32.4991 8.85748C31.8049 8.85748 31.1003 8.88429 30.4051 8.93743C23.5761 9.45595 17.2358 12.512 12.5518 17.5427C7.84363 22.5996 5.25053 29.1922 5.25053 36.1062C5.25053 50.6531 16.6217 62.6074 31.1381 63.3214H31.1385C31.5866 63.3436 32.0444 63.3549 32.4991 63.3549C39.6737 63.3549 46.4461 60.5898 51.5686 55.5687C56.8432 50.4009 59.748 43.4891 59.748 36.1062C59.748 31.7458 58.7493 27.5802 56.7797 23.7253C54.9007 20.0477 52.157 16.7893 48.8457 14.3023C44.1009 10.7404 38.4483 8.85748 32.4991 8.85748Z" fill="#333333"/>
<path d="M13.3527 16.7154C17.7414 16.7154 21.2991 13.1577 21.2991 8.76896C21.2991 4.38026 17.7414 0.82251 13.3527 0.82251C8.964 0.82251 5.40625 4.38026 5.40625 8.76896C5.40625 13.1577 8.964 16.7154 13.3527 16.7154Z" fill="#F7DB9C"/>
<path opacity="0.25" d="M5.40625 8.7685C5.40625 13.1575 8.96286 16.7158 13.3519 16.7158C14.0329 16.7158 14.6959 16.6302 15.3259 16.469C11.8927 15.5906 9.35439 12.4765 9.35439 8.7685C9.35439 5.06054 11.8927 1.9481 15.3259 1.06963C14.6959 0.908419 14.0329 0.822876 13.3519 0.822876C8.96286 0.822876 5.40625 4.37949 5.40625 8.7685Z" fill="black"/>
<path d="M13.3512 17.538C8.51586 17.538 4.58203 13.6041 4.58203 8.76898C4.5822 3.93383 8.51602 0 13.3512 0C18.1863 0 22.1202 3.93383 22.1202 8.76898C22.1202 13.6043 18.1865 17.538 13.3512 17.538ZM13.3512 1.64506C9.42294 1.64506 6.22709 4.84091 6.22709 8.76898C6.22709 12.6972 9.42294 15.8929 13.3512 15.8929C17.2792 15.8929 20.4751 12.697 20.4751 8.76898C20.4751 4.84091 17.2792 1.64506 13.3512 1.64506Z" fill="#333333"/>
<path d="M11.3811 7.97357C11.3268 7.97357 11.2725 7.96863 11.2199 7.95712C11.1674 7.94725 11.1163 7.93079 11.0669 7.91105C11.0159 7.88967 10.9682 7.86499 10.9238 7.83538C10.8794 7.80577 10.8366 7.77122 10.7988 7.73339C10.7609 7.69555 10.7264 7.65278 10.6968 7.60836C10.6672 7.56395 10.6425 7.51624 10.6211 7.46524C10.6014 7.41589 10.5849 7.3649 10.575 7.31225C10.5637 7.25961 10.5586 7.20532 10.5586 7.15104C10.5586 6.93554 10.6458 6.72332 10.7988 6.57033C10.8364 6.5325 10.8794 6.49795 10.9238 6.46834C10.9684 6.43873 11.0161 6.41241 11.0669 6.39267C11.1163 6.37128 11.1673 6.35648 11.2199 6.34496C11.4864 6.29067 11.7712 6.37951 11.962 6.57033C12.115 6.72332 12.2038 6.93554 12.2038 7.15104C12.2038 7.20532 12.1972 7.25961 12.1874 7.31225C12.1773 7.3649 12.161 7.41589 12.1397 7.46524C12.1199 7.51624 12.0936 7.56395 12.064 7.60836C12.0342 7.65278 11.9997 7.69555 11.962 7.73339C11.8088 7.88638 11.5965 7.97357 11.3811 7.97357Z" fill="#333333"/>
<path d="M12.5335 13.0733C12.4792 13.0733 12.4249 13.0684 12.3723 13.0568C12.3198 13.047 12.2686 13.0305 12.2193 13.0108C12.1683 12.9894 12.1206 12.9647 12.0761 12.9351C12.0317 12.9055 11.989 12.8709 11.9511 12.8331C11.7981 12.6801 11.7109 12.4679 11.7109 12.2508C11.7109 12.0353 11.7981 11.823 11.9511 11.6701C11.9888 11.6322 12.0317 11.5977 12.0761 11.5681C12.1207 11.5384 12.1684 11.5121 12.2193 11.4924C12.2686 11.471 12.3196 11.4562 12.3723 11.4447C12.6387 11.392 12.9235 11.4792 13.1143 11.6701C13.2673 11.823 13.3562 12.0353 13.3562 12.2508C13.3562 12.4679 13.2673 12.6801 13.1143 12.8331C13.0765 12.8709 13.0354 12.9055 12.9891 12.9351C12.9447 12.9647 12.897 12.9894 12.8478 13.0108C12.7985 13.0305 12.7458 13.047 12.6947 13.0568C12.6404 13.0684 12.5861 13.0733 12.5335 13.0733Z" fill="#333333"/>
<path d="M14.4241 7.39782C14.2069 7.39782 13.9947 7.31063 13.8417 7.15764C13.8039 7.11981 13.7694 7.07704 13.7397 7.03262C13.7101 6.9882 13.6855 6.9405 13.6641 6.89114C13.6443 6.84015 13.6279 6.78915 13.618 6.73651C13.6067 6.68387 13.6016 6.62958 13.6016 6.57529C13.6016 6.52265 13.6065 6.46836 13.618 6.41572C13.628 6.36308 13.6443 6.31044 13.6641 6.26109C13.6855 6.21174 13.7101 6.16403 13.7397 6.11961C13.7694 6.07355 13.8039 6.03242 13.8417 5.99459C14.0326 5.80376 14.3172 5.71493 14.5837 5.76922C14.6363 5.77909 14.6891 5.79554 14.7383 5.81692C14.7877 5.83666 14.8354 5.86134 14.8796 5.89259C14.9257 5.92221 14.9668 5.95675 15.0048 5.99459C15.0425 6.03242 15.077 6.07355 15.1068 6.11961C15.1379 6.16403 15.1627 6.21174 15.1825 6.26109C15.2038 6.31044 15.2201 6.36308 15.2302 6.41572C15.2415 6.46836 15.2466 6.52265 15.2466 6.57529C15.2466 6.62958 15.2417 6.68387 15.2302 6.73651C15.2201 6.78915 15.2038 6.84015 15.1825 6.89114C15.1627 6.9405 15.1379 6.9882 15.1068 7.03262C15.077 7.07704 15.0425 7.11981 15.0048 7.15764C14.967 7.19548 14.9258 7.23003 14.8796 7.25964C14.8352 7.28925 14.7875 7.31392 14.7383 7.33531C14.6889 7.35505 14.6363 7.3715 14.5837 7.38137C14.531 7.39289 14.4767 7.39782 14.4241 7.39782Z" fill="#333333"/>
<path d="M17.1037 13.4304C16.8933 13.4304 16.6826 13.3501 16.5222 13.1896C16.2009 12.8683 16.2009 12.3476 16.5222 12.0263C17.6545 10.8939 18.1485 9.27465 17.8432 7.69507C17.7572 7.24909 18.0487 6.81759 18.4948 6.73139C18.9408 6.64503 19.3723 6.93686 19.4583 7.383C19.8673 9.49969 19.2045 11.6703 17.6853 13.1896C17.5249 13.3501 17.3141 13.4304 17.1037 13.4304Z" fill="white"/>
<path d="M17.1036 5.45006C17.0493 5.45006 16.995 5.44348 16.9424 5.43361C16.8899 5.4221 16.8371 5.40729 16.7879 5.38591C16.7386 5.36617 16.6909 5.33984 16.6465 5.31023C16.602 5.28062 16.5593 5.24608 16.5214 5.20824C16.4836 5.1704 16.449 5.12763 16.4194 5.08322C16.3898 5.0388 16.3635 4.99109 16.3438 4.94174C16.3224 4.89239 16.3076 4.83975 16.2961 4.78711C16.2862 4.73446 16.2812 4.68018 16.2812 4.62753C16.2812 4.57325 16.2862 4.51896 16.2961 4.46632C16.3076 4.41368 16.3224 4.36268 16.3438 4.31168C16.3635 4.26233 16.3898 4.21463 16.4194 4.17021C16.449 4.12579 16.4836 4.08302 16.5214 4.04518C16.5591 4.00735 16.602 3.9728 16.6465 3.94319C16.691 3.91358 16.7387 3.88726 16.7879 3.86752C16.8373 3.84613 16.8899 3.83133 16.9424 3.81981C17.0478 3.79843 17.1581 3.79843 17.2632 3.81981C17.3158 3.83133 17.3686 3.84613 17.4178 3.86752C17.4672 3.88726 17.5149 3.91358 17.5591 3.94319C17.6037 3.9728 17.6463 4.00735 17.6843 4.04518C17.722 4.08302 17.7565 4.12579 17.7861 4.17021C17.8159 4.21463 17.8422 4.26233 17.862 4.31168C17.8834 4.36268 17.8982 4.41368 17.9095 4.46632C17.9196 4.51896 17.9261 4.57325 17.9261 4.62753C17.9261 4.68018 17.9196 4.73446 17.9095 4.78711C17.8982 4.83975 17.8834 4.89239 17.862 4.94174C17.8422 4.99109 17.8159 5.0388 17.7861 5.08322C17.7565 5.12763 17.722 5.1704 17.6843 5.20824C17.6465 5.24608 17.6037 5.28062 17.5591 5.31023C17.5147 5.33984 17.467 5.36617 17.4178 5.38591C17.3685 5.40729 17.3158 5.4221 17.2632 5.43361C17.2104 5.44365 17.1563 5.45006 17.1036 5.45006Z" fill="white"/>
</svg>
