<svg width="65" height="65" viewBox="0 0 65 65" fill="none" xmlns="http://www.w3.org/2000/svg">
<g clip-path="url(#clip0_649_11444)">
<path d="M32.5009 64.0283C49.9135 64.0283 64.0292 49.9127 64.0292 32.5001C64.0292 15.0875 49.9135 0.971802 32.5009 0.971802C15.0883 0.971802 0.972656 15.0875 0.972656 32.5001C0.972656 49.9127 15.0883 64.0283 32.5009 64.0283Z" fill="#F9DEA0"/>
<path d="M32.5013 61.3334C48.4256 61.3334 61.3347 48.4243 61.3347 32.5C61.3347 16.5758 48.4256 3.66669 32.5013 3.66669C16.5771 3.66669 3.66797 16.5758 3.66797 32.5C3.66797 48.4243 16.5771 61.3334 32.5013 61.3334Z" fill="#FCBC1D"/>
<path d="M32.4991 58.2179C46.7026 58.2179 58.2169 46.7036 58.2169 32.5001C58.2169 18.2965 46.7026 6.78229 32.4991 6.78229C18.2955 6.78229 6.78125 18.2965 6.78125 32.5001C6.78125 46.7036 18.2955 58.2179 32.4991 58.2179Z" fill="#F24125"/>
<path d="M48.5545 49.3074C48.3615 49.3074 48.1688 49.2338 48.0215 49.0867C47.7272 48.7924 47.7272 48.3152 48.0215 48.021C55.3583 40.6843 56.5394 29.0762 50.8299 20.4193C50.6007 20.0719 50.6967 19.6046 51.0441 19.3753C51.3918 19.1461 51.8592 19.2422 52.0881 19.5895C58.1897 28.841 56.9277 41.2463 49.0872 49.0867C48.9401 49.2338 48.7474 49.3074 48.5545 49.3074Z" fill="white"/>
<path d="M49.7106 18.4445C49.4988 18.4445 49.2884 18.3559 49.1394 18.1828C48.7839 17.7702 48.4078 17.3652 48.0215 16.9791C47.7272 16.6849 47.7272 16.2077 48.0215 15.9134C48.3157 15.619 48.793 15.619 49.0872 15.9134C49.4997 16.3257 49.9014 16.7583 50.281 17.199C50.5528 17.5143 50.5174 17.9901 50.2022 18.2618C50.0598 18.3845 49.8848 18.4445 49.7106 18.4445Z" fill="white"/>
<path d="M13.9028 46.2782C13.6653 46.2782 13.4318 46.1663 13.285 45.9571C10.1598 41.4992 8.68537 36.0337 9.13345 30.5677C9.58664 25.0372 11.9947 19.8328 15.9142 15.9134C16.2086 15.619 16.6856 15.619 16.9799 15.9134C17.2743 16.2077 17.2743 16.6849 16.9799 16.9791C13.3127 20.6461 11.0597 25.5157 10.6355 30.6907C10.2162 35.8069 11.5954 40.9213 14.5191 45.0919C14.7579 45.4326 14.6753 45.9026 14.3346 46.1415C14.2032 46.2338 14.0521 46.2782 13.9028 46.2782Z" fill="white"/>
<path d="M16.4462 49.3074C16.2532 49.3074 16.0605 49.2338 15.9134 49.0867C15.6285 48.802 15.3472 48.5059 15.0771 48.2067C14.7981 47.8978 14.8225 47.4214 15.1315 47.1424C15.4404 46.8636 15.9169 46.8878 16.1958 47.1968C16.4489 47.477 16.7123 47.7543 16.9789 48.021C17.2733 48.3154 17.2733 48.7924 16.9789 49.0867C16.8318 49.2338 16.6389 49.3074 16.4462 49.3074Z" fill="white"/>
<path d="M58.5587 15.1369C58.3206 15.1369 58.0864 15.0243 57.94 14.8144C52.129 6.48187 42.6192 1.50726 32.5015 1.50726C31.1431 1.50726 29.7758 1.59648 28.4378 1.77252C28.0255 1.82677 27.6466 1.53635 27.5925 1.12369C27.5382 0.711039 27.8288 0.332597 28.2414 0.27834C29.6441 0.0937153 31.0776 0.00012207 32.5015 0.00012207C43.1116 0.00012207 53.0836 5.21587 59.1762 13.9522C59.4143 14.2935 59.3305 14.7633 58.9892 15.0013C58.8579 15.0929 58.7076 15.1369 58.5587 15.1369Z" fill="#333333"/>
<path d="M23.23 2.88703C22.9073 2.88703 22.6089 2.6783 22.5097 2.35366C22.388 1.95562 22.6119 1.53438 23.01 1.4126C23.7614 1.18276 24.5311 0.978094 25.2976 0.804019C25.7032 0.712084 26.1071 0.966187 26.1994 1.37206C26.2914 1.77793 26.0372 2.18169 25.6313 2.27378C24.9008 2.43972 24.1671 2.63489 23.4508 2.85388C23.3772 2.87633 23.3029 2.88703 23.23 2.88703Z" fill="#333333"/>
<path d="M9.07689 54.6604C8.87282 54.6604 8.66921 54.578 8.5206 54.4155C3.02603 48.4085 0 40.6255 0 32.5001C0 25.9672 1.93893 19.6629 5.60716 14.2688C9.18676 9.00498 14.1716 4.93209 20.0226 2.49053C20.4066 2.33032 20.8481 2.51178 21.0083 2.8958C21.1685 3.27997 20.9872 3.72126 20.6032 3.88147C15.0227 6.20999 10.2681 10.0949 6.85356 15.1163C3.35594 20.2595 1.50714 26.2706 1.50714 32.5001C1.50714 40.248 4.39286 47.6699 9.63272 53.3985C9.91365 53.7056 9.8924 54.1822 9.58525 54.4631C9.44071 54.5953 9.2585 54.6604 9.07689 54.6604Z" fill="#333333"/>
<path d="M32.5002 65C24.6923 65 17.1393 62.1789 11.2325 57.0563C10.9181 56.7837 10.8842 56.3077 11.157 55.9933C11.4296 55.6789 11.9058 55.6452 12.22 55.9178C17.8528 60.8028 25.0551 63.4929 32.5003 63.4929C49.5898 63.4929 63.4931 49.5895 63.4931 32.5001C63.4931 27.7138 62.4265 23.1219 60.323 18.8516C60.1391 18.4783 60.2927 18.0264 60.666 17.8425C61.0395 17.6587 61.4912 17.8122 61.6751 18.1856C63.8815 22.6648 65.0003 27.4808 65.0003 32.5001C65.0001 50.4204 50.4207 65 32.5002 65Z" fill="#333333"/>
<path d="M46.5162 58.3306C46.2524 58.3306 45.9965 58.1919 45.8583 57.9457C45.6545 57.5827 45.7837 57.1234 46.1468 56.9198C54.9876 51.9595 60.4798 42.6024 60.4798 32.5002C60.4798 31.12 60.3779 29.7326 60.1769 28.377C60.1158 27.9654 60.4001 27.5821 60.8117 27.5211C61.2224 27.46 61.6065 27.7441 61.6676 28.1559C61.8795 29.5845 61.9869 31.0461 61.9869 32.5002C61.9869 43.1468 56.2 53.0074 46.8844 58.2341C46.7677 58.2994 46.6411 58.3306 46.5162 58.3306Z" fill="#333333"/>
<path d="M60.327 26.0944C59.9914 26.0944 59.6853 25.8685 59.5977 25.5285C58.0796 19.6308 54.5879 14.2935 49.7655 10.5002C44.7933 6.58888 38.8224 4.52154 32.4983 4.52154C26.9014 4.52154 21.4962 6.17593 16.8672 9.30595C16.5225 9.53911 16.054 9.44853 15.8208 9.10385C15.5876 8.75901 15.6782 8.29059 16.0229 8.05744C20.9023 4.75831 26.5992 3.0144 32.4983 3.0144C39.1638 3.0144 45.4569 5.19342 50.6973 9.3156C55.778 13.3122 59.4573 18.9366 61.0574 25.1528C61.1611 25.5558 60.9186 25.9666 60.5154 26.0703C60.4524 26.0866 60.3891 26.0944 60.327 26.0944Z" fill="#333333"/>
<path d="M12.1403 12.999C11.9481 12.999 11.7558 12.9259 11.6088 12.7796C11.3137 12.486 11.3125 12.0088 11.6061 11.7139C12.1083 11.2091 12.635 10.7166 13.1717 10.2498C13.4857 9.97675 13.9618 10.0099 14.2349 10.3238C14.5081 10.6378 14.4748 11.1139 14.1609 11.387C13.6515 11.8301 13.1514 12.2976 12.6747 12.7769C12.5271 12.9249 12.3336 12.999 12.1403 12.999Z" fill="#333333"/>
<path d="M32.5013 61.9857C16.2429 61.9857 3.01562 48.7583 3.01562 32.5C3.01562 25.7527 5.36284 19.153 9.62488 13.9161C9.88757 13.5933 10.3622 13.5446 10.685 13.8073C11.0078 14.07 11.0565 14.5446 10.7938 14.8674C6.74986 19.8363 4.52276 26.0983 4.52276 32.5C4.52276 47.9274 17.0738 60.4786 32.5013 60.4786C36.4075 60.4786 40.189 59.6853 43.7409 58.1211C44.1215 57.9535 44.5665 58.1261 44.7343 58.5071C44.902 58.8879 44.7293 59.3327 44.3483 59.5004C40.6039 61.1494 36.618 61.9857 32.5013 61.9857Z" fill="#333333"/>
<path d="M6.78091 33.2536C6.36479 33.2536 6.02734 32.9162 6.02734 32.5C6.02734 25.2112 8.92753 18.4201 14.1938 13.3776C14.4944 13.0898 14.9715 13.1002 15.2592 13.4007C15.547 13.7014 15.5366 14.1784 15.2361 14.4661C10.2696 19.2217 7.53448 25.6261 7.53448 32.5C7.53448 32.9162 7.19703 33.2536 6.78091 33.2536Z" fill="#333333"/>
<path d="M32.5008 58.9715C26.0647 58.9715 19.8609 56.634 15.0322 52.3896C10.2478 48.1843 7.13839 42.4104 6.27661 36.1315C6.22009 35.7192 6.5084 35.3391 6.92076 35.2826C7.33236 35.2262 7.71321 35.5144 7.76973 35.9267C8.58222 41.8467 11.5147 47.2914 16.0272 51.2576C20.5807 55.2601 26.4313 57.4643 32.5008 57.4643C36.2806 57.4643 39.9112 56.6413 43.2921 55.0181C43.6672 54.8378 44.1175 54.9961 44.2975 55.3712C44.4776 55.7463 44.3195 56.1965 43.9444 56.3766C40.3583 58.0985 36.5081 58.9715 32.5008 58.9715Z" fill="#333333"/>
<path d="M45.891 55.2161C45.6371 55.2161 45.3893 55.0878 45.2473 54.8553C45.0303 54.5002 45.1425 54.0363 45.4975 53.8194C46.1632 53.4128 46.8179 52.9693 47.4433 52.5013C47.7763 52.2519 48.2488 52.32 48.4981 52.6532C48.7474 52.9864 48.6794 53.4586 48.3462 53.7081C47.6832 54.2042 46.9891 54.6744 46.2832 55.1056C46.1605 55.1804 46.0249 55.2161 45.891 55.2161Z" fill="#333333"/>
<path d="M50.2051 51.9051C50.0057 51.9051 49.8066 51.8264 49.6586 51.6704C49.372 51.3687 49.3843 50.8917 49.6862 50.605C54.7008 45.8428 57.4625 39.413 57.4625 32.5001C57.4625 18.7348 46.2635 7.53582 32.4982 7.53582C27.3238 7.53582 22.3603 9.10445 18.1445 12.0723C17.8042 12.3119 17.3341 12.2303 17.0945 11.8899C16.8549 11.5496 16.9366 11.0796 17.2769 10.8399C21.7481 7.69242 27.0115 6.02869 32.4982 6.02869C47.0945 6.02869 58.9696 17.9037 58.9696 32.5001C58.9696 39.8303 56.0412 46.6483 50.724 51.698C50.5783 51.8362 50.3916 51.9051 50.2051 51.9051Z" fill="#333333"/>
</g>
<defs>
<clipPath id="clip0_649_11444">
<rect width="65" height="65" fill="white"/>
</clipPath>
</defs>
</svg>
