<svg width="66" height="66" viewBox="0 0 66 66" fill="none" xmlns="http://www.w3.org/2000/svg">
<g clip-path="url(#clip0_649_11305)">
<path d="M55.6511 10.3131C58.661 13.3192 61.0791 16.9191 62.708 20.9248C64.2243 24.6524 65.0585 28.7295 65.0585 33.0001C65.0585 35.311 64.8142 37.5656 64.3483 39.7376C63.0105 45.9979 59.8447 51.5799 55.4351 55.8993C53.3063 57.9867 50.8845 59.781 48.2391 61.2108C43.7055 63.6665 38.5143 65.0606 32.998 65.0606C32.4606 65.0606 31.927 65.0474 31.3972 65.0211C21.3886 64.5288 12.5882 59.4466 7.05312 51.8373C3.20714 46.5484 0.9375 40.0382 0.9375 33.0001C0.9375 32.6487 0.943137 32.2993 0.95441 31.9498C1.18551 24.7576 3.7877 18.1629 8.00193 12.9228C13.3961 6.21535 21.4356 1.72493 30.5348 1.03352C31.3484 0.971515 32.1694 0.939575 32.998 0.939575C40.2146 0.939575 46.8732 3.32382 52.2316 7.34641C53.4416 8.25389 54.5839 9.24592 55.6511 10.3131Z" fill="#FCBC1D"/>
<path opacity="0.25" d="M35.7463 63.3159C31.9961 61.9913 28.5654 59.9866 25.6043 57.4521C18.7297 51.5713 14.3727 42.8347 14.3727 33.0798C14.3727 24.4296 17.7997 16.5779 23.3685 10.8118C26.4367 7.63468 30.1549 5.08885 34.309 3.39038C36.0413 2.683 37.8499 2.12442 39.7178 1.72629C37.5517 1.26448 35.3057 1.01929 33.0019 1.01929C28.7106 1.01929 24.6185 1.86289 20.8778 3.39038C16.7236 5.08885 13.0054 7.63468 9.93728 10.8118C4.36841 16.5779 0.941406 24.4296 0.941406 33.0798C0.941406 42.8347 5.29843 51.5713 12.1731 57.4521C15.1341 59.9866 18.5649 61.9913 22.3151 63.3159C25.6575 64.4977 29.2555 65.1403 33.0019 65.1403C35.3044 65.1403 37.5502 64.896 39.7157 64.4346C38.3588 64.1452 37.0335 63.771 35.7463 63.3159Z" fill="black"/>
<path opacity="0.25" d="M48.0458 25.4657C47.587 23.2354 48.2611 21.1189 49.6028 20.1017C49.9683 19.8262 50.3825 19.6308 50.8378 19.5363C52.9652 19.0997 55.1597 21.0454 55.7432 23.8836C56.3253 26.7201 55.0772 29.3743 52.95 29.8109C52.2698 29.9522 51.5792 29.8468 50.9411 29.5471C49.5831 28.91 48.4436 27.3944 48.0458 25.4657Z" fill="black"/>
<path d="M48.0458 25.4658C47.587 23.2354 48.2611 21.1189 49.6028 20.1017C50.9607 20.7392 52.1034 22.2554 52.4979 24.1833C52.9567 26.4138 52.2826 28.5302 50.9409 29.5474C49.5831 28.9101 48.4436 27.3944 48.0458 25.4658Z" fill="#FCBC1D"/>
<path d="M52.3469 30.8127C51.7404 30.8127 51.1279 30.6731 50.5419 30.3979C50.0722 30.1773 49.8704 29.6178 50.091 29.1483C50.3118 28.6786 50.8718 28.477 51.3404 28.6972C51.8193 28.9221 52.2968 28.9874 52.7591 28.8914C54.3481 28.5653 55.2924 26.3588 54.8232 24.0726C54.3533 21.7868 52.6156 20.1306 51.0269 20.4568C50.7217 20.5201 50.4322 20.6531 50.1686 20.8519C49.0764 21.6799 48.5924 23.4586 48.9663 25.2766C49.071 25.7848 48.7435 26.2814 48.2353 26.386C47.7261 26.4907 47.2303 26.1632 47.126 25.6551C46.6014 23.1042 47.3509 20.6306 49.0357 19.3533C49.5247 18.9847 50.0662 18.7374 50.6473 18.6168C53.2798 18.0768 55.977 20.3547 56.6637 23.6948C57.3491 27.0355 55.7679 30.1922 53.1389 30.7316C52.8781 30.7857 52.6132 30.8127 52.3469 30.8127Z" fill="#333333"/>
<path d="M55.8573 18.5926C55.5486 18.5926 55.2465 18.4408 55.0668 18.1622C53.8749 16.3134 52.4594 14.6074 50.8596 13.0912C50.483 12.7344 50.4671 12.1397 50.824 11.763C51.1805 11.3865 51.7753 11.3704 52.152 11.7273C53.8606 13.3467 55.3727 15.169 56.6458 17.1438C56.9269 17.5799 56.8014 18.1612 56.3653 18.4425C56.2079 18.5441 56.0314 18.5926 55.8573 18.5926Z" fill="white"/>
<path d="M51.3732 54.5513C51.1222 54.5513 50.8719 54.4513 50.687 54.2537C50.3325 53.8747 50.3524 53.2803 50.7312 52.9259C56.2503 47.7627 59.4157 40.4807 59.4157 32.9475C59.4157 31.3067 59.2688 29.6623 58.9789 28.0604C58.8865 27.55 59.2256 27.0611 59.7359 26.9686C60.2475 26.8766 60.7351 27.2151 60.8277 27.7258C61.1375 29.4378 61.2946 31.1947 61.2946 32.9475C61.2946 40.9987 57.9123 48.7806 52.0148 54.298C51.8337 54.4673 51.603 54.5513 51.3732 54.5513Z" fill="white"/>
<path d="M47.4209 57.6441C47.1134 57.6441 46.812 57.4932 46.632 57.2161C46.3496 56.7809 46.4732 56.1991 46.9086 55.9167C47.3886 55.6052 47.8641 55.2747 48.3224 54.9348C48.7391 54.6253 49.3276 54.7129 49.6366 55.1292C49.9459 55.546 49.8587 56.1342 49.442 56.4435C48.9526 56.8069 48.4441 57.1599 47.9316 57.4926C47.7736 57.5952 47.5962 57.6441 47.4209 57.6441Z" fill="white"/>
<path d="M33.0001 66.0003C14.8037 66.0003 0 51.1966 0 33.0004C0 14.8042 14.8037 0.000488281 33.0001 0.000488281C51.1963 0.000488281 66 14.8042 66 33.0004C65.9998 51.1966 51.1961 66.0003 33.0001 66.0003ZM33.0001 1.87933C15.8397 1.87933 1.87884 15.8402 1.87884 33.0004C1.87884 50.1606 15.8397 64.1215 33.0001 64.1215C50.1603 64.1215 64.1212 50.1606 64.1212 33.0004C64.1212 15.8402 50.1603 1.87933 33.0001 1.87933Z" fill="#333333"/>
<path opacity="0.25" d="M38.3565 34.2251C38.3565 37.5863 35.6303 40.3125 32.269 40.3125C31.6095 40.3125 30.9745 40.2073 30.3789 40.0119C32.8139 39.2171 34.5744 36.9268 34.5744 34.2251C34.5744 31.5233 32.8139 29.233 30.3789 28.4382C30.9745 28.2428 31.6095 28.1376 32.269 28.1376C35.6303 28.1378 38.3565 30.8638 38.3565 34.2251Z" fill="black"/>
<path d="M18.6916 48.6664C18.344 49.1211 17.9081 49.4856 17.3858 49.7336C15.1105 50.8139 12.0969 49.2263 10.6558 46.1901C9.21476 43.1539 9.89114 39.8152 12.1664 38.7348C12.5102 38.5714 12.871 38.4699 13.2411 38.4248C15.3153 38.1693 17.6714 39.7006 18.8964 42.2802C20.0068 44.6214 19.8603 47.1391 18.6916 48.6664Z" fill="#FCBC1D"/>
<path opacity="0.25" d="M18.6939 48.6664C16.6177 48.9238 14.2617 47.3907 13.0386 44.8129C11.9282 42.4719 12.0747 39.9523 13.2433 38.4248C15.3176 38.1693 17.6736 39.7006 18.8987 42.2802C20.009 44.6214 19.8625 47.1391 18.6939 48.6664Z" fill="black"/>
<path d="M15.878 51.0069C13.5601 51.0069 11.1031 49.3185 9.80953 46.5931C8.14826 43.093 9.02549 39.1877 11.765 37.8873C13.139 37.235 14.7435 37.3222 16.2831 38.1327C17.7326 38.8961 18.9625 40.2257 19.7461 41.8768C19.9688 42.3456 19.7691 42.9059 19.3003 43.1283C18.8319 43.351 18.2712 43.1511 18.049 42.6825C17.4384 41.3959 16.5003 40.3706 15.4075 39.7953C14.4046 39.2671 13.3972 39.1924 12.5705 39.5847C10.7668 40.4407 10.2898 43.2232 11.5067 45.7875C12.7236 48.3513 15.1806 49.7415 16.985 48.8853C17.8113 48.493 18.3906 47.6652 18.6156 46.5542C18.7188 46.0456 19.2146 45.717 19.7228 45.82C20.2314 45.9229 20.56 46.4186 20.4571 46.9272C20.1118 48.6322 19.1648 49.9303 17.7906 50.5826C17.1843 50.8705 16.5367 51.0069 15.878 51.0069Z" fill="#333333"/>
<path d="M32.2685 41.2514C28.3941 41.2514 25.2422 38.0994 25.2422 34.2251C25.2422 33.7063 25.6627 33.2857 26.1816 33.2857C26.7005 33.2857 27.121 33.7063 27.121 34.2251C27.121 37.0634 29.4301 39.3725 32.2685 39.3725C35.1068 39.3725 37.4159 37.0633 37.4159 34.2251C37.4159 31.3869 35.1068 29.0776 32.2685 29.0776C31.3336 29.0776 30.4186 29.3305 29.6221 29.8089C29.1774 30.0762 28.6002 29.9321 28.3333 29.4872C28.0661 29.0425 28.2102 28.4653 28.6549 28.1981C29.7433 27.5443 30.9929 27.1986 32.2685 27.1986C36.1428 27.1986 39.2948 30.3505 39.2948 34.2249C39.2948 38.0993 36.1428 41.2514 32.2685 41.2514Z" fill="#333333"/>
<path d="M31.8933 18.8225C31.0074 18.8225 30.1749 18.4776 29.5485 17.8514C29.1817 17.4844 29.1817 16.8896 29.5487 16.5228C29.9152 16.1559 30.5103 16.1559 30.8772 16.5228C31.1485 16.7943 31.5094 16.9437 31.8933 16.9437C32.2771 16.9437 32.638 16.7941 32.9095 16.5228C33.4696 15.9626 33.4696 15.0508 32.9093 14.4903C32.638 14.2188 32.2771 14.0695 31.8933 14.0695C31.5094 14.0695 31.1485 14.2188 30.8772 14.4903C30.5103 14.8572 29.9156 14.8572 29.5487 14.4903C29.1817 14.1236 29.1817 13.5287 29.5485 13.1618C30.1749 12.5354 31.0076 12.1906 31.8933 12.1906C32.7789 12.1906 33.6117 12.5356 34.2379 13.1618C35.5307 14.4548 35.5307 16.5585 34.2381 17.8514C33.6115 18.4776 32.7789 18.8225 31.8933 18.8225Z" fill="#333333"/>
<path d="M43.6159 52.7111C42.73 52.7111 41.8975 52.3662 41.2711 51.74C40.9044 51.373 40.9044 50.7782 41.2713 50.4115C41.6379 50.0445 42.2329 50.0445 42.5998 50.4115C42.8711 50.6829 43.2321 50.8323 43.6159 50.8323C43.9998 50.8323 44.3607 50.6829 44.632 50.4115C44.9035 50.14 45.053 49.779 45.053 49.3952C45.053 49.0113 44.9035 48.6504 44.6322 48.3789C44.3607 48.1074 43.9998 47.9581 43.6159 47.9581C43.2321 47.9581 42.8711 48.1074 42.5998 48.3789C42.2329 48.7459 41.6383 48.7459 41.2713 48.3789C40.9044 48.0122 40.9044 47.4173 41.2711 47.0504C41.8975 46.424 42.7302 46.0792 43.6159 46.0792C44.5016 46.0792 45.3343 46.4242 45.9607 47.0504C46.5869 47.6766 46.9319 48.5095 46.9319 49.3952C46.9319 50.2809 46.5869 51.1138 45.9605 51.74C45.3345 52.3662 44.5018 52.7111 43.6159 52.7111Z" fill="#333333"/>
</g>
<defs>
<clipPath id="clip0_649_11305">
<rect width="66" height="66" fill="white"/>
</clipPath>
</defs>
</svg>
