<svg width="66" height="65" viewBox="0 0 66 65" fill="none" xmlns="http://www.w3.org/2000/svg">
<g clip-path="url(#clip0_649_11288)">
<path d="M31.3973 64.036C14.4351 63.2144 0.9375 49.4087 0.9375 32.5C0.9375 15.8762 13.9804 2.2556 30.5349 1.0177C31.0835 1.77635 31.3992 2.62938 31.3992 3.61008C31.3992 11.1781 12.6108 11.1781 12.6108 18.7462C12.6108 26.3142 31.3992 26.3142 31.3992 33.8822C31.3992 41.4503 12.6108 41.4503 12.6108 49.0183C12.6108 56.5475 31.2057 56.5863 31.3973 64.036Z" fill="#DB2B19"/>
<path d="M31.3998 64.0359C31.2082 56.5863 12.6133 56.5475 12.6133 49.0183C12.6133 41.4503 31.4017 41.4503 31.4017 33.8822C31.4017 26.3142 12.6133 26.3142 12.6133 18.7461C12.6133 11.1781 31.4017 11.1781 31.4017 3.61007C31.4017 2.62937 31.0861 1.77634 30.5374 1.01769C31.351 0.956627 32.172 0.925171 33.0006 0.925171C40.2172 0.925171 46.8759 3.2733 52.2343 7.23495C47.1671 9.30737 41.617 11.1855 41.617 15.2989C41.617 22.8669 60.4054 22.8669 60.4054 30.435C60.4054 38.003 41.617 38.003 41.617 45.571C41.617 50.5874 49.8707 52.2786 55.4377 55.0524C49.6565 60.6331 41.7353 64.0748 33.0006 64.0748C32.4633 64.0748 31.9297 64.0618 31.3998 64.0359Z" fill="#F24125"/>
<path d="M41.6172 15.2989C41.6172 11.1855 47.1673 9.30741 52.2345 7.23499C60.0223 12.9952 65.0614 22.1675 65.0614 32.5C65.0614 41.3356 61.377 49.3218 55.438 55.0524C49.8709 52.2787 41.6172 50.5874 41.6172 45.5711C41.6172 38.003 60.4056 38.003 60.4056 30.435C60.4056 22.867 41.6172 22.867 41.6172 15.2989Z" fill="#FC7365"/>
<path d="M51.0096 38.9286C50.6393 38.9286 50.2885 38.7117 50.1397 38.3535C49.9434 37.8805 50.1735 37.3404 50.6536 37.1468C54.9302 35.4241 59.3522 33.643 59.3522 30.4351C59.3522 27.2708 55.0989 25.5474 50.5961 23.7227C45.719 21.7465 40.6758 19.703 40.6758 15.2991C40.6758 10.8937 45.7487 8.84995 50.6545 6.87375C51.0613 6.70981 51.4682 6.54587 51.872 6.38063C52.3513 6.18449 52.9012 6.40838 53.0998 6.88023C53.299 7.35207 53.0718 7.89349 52.5927 8.08945C52.1858 8.2558 51.7756 8.42104 51.3658 8.58627C46.8344 10.4117 42.5546 12.1359 42.5546 15.2991C42.5546 18.4634 46.808 20.1868 51.3108 22.0115C56.1879 23.9877 61.2311 26.0314 61.2311 30.4351C61.2311 34.8855 55.9895 36.9968 51.3647 38.8595C51.2484 38.9063 51.1278 38.9286 51.0096 38.9286Z" fill="#333333"/>
<path d="M46.913 40.6814C46.5656 40.6814 46.2317 40.4909 46.0687 40.163C45.8404 39.7041 46.0331 39.1499 46.4991 38.9253C46.9585 38.7036 47.4569 38.4771 48.0225 38.2327C48.4973 38.0273 49.0519 38.2402 49.2601 38.708C49.4686 39.176 49.2526 39.7217 48.7774 39.927C48.2361 40.1609 47.7613 40.3769 47.3254 40.5871C47.1924 40.6511 47.0517 40.6814 46.913 40.6814Z" fill="#333333"/>
<path d="M55.435 55.9777C55.2924 55.9777 55.1478 55.9457 55.0117 55.8778C53.6781 55.2133 52.141 54.5944 50.6547 53.9956C45.7488 52.0198 40.6758 49.9766 40.6758 45.5709C40.6758 43.5399 41.7753 41.8168 44.0368 40.3028C44.4658 40.0157 45.0503 40.1254 45.3417 40.5478C45.6335 40.9704 45.5221 41.5459 45.0929 41.8331C43.3612 42.9924 42.5546 44.1801 42.5546 45.5709C42.5546 48.7341 46.8346 50.4579 51.3658 52.2829C52.8866 52.8954 54.4592 53.5288 55.8598 54.2267C56.3228 54.4575 56.5082 55.0141 56.2741 55.47C56.1086 55.7921 55.7779 55.9777 55.435 55.9777Z" fill="#333333"/>
<path d="M31.3972 64.9611C30.8894 64.9611 30.4715 64.5622 30.4586 64.0594C30.3789 60.9584 25.9416 59.1713 21.6507 57.443C17.7337 55.8654 13.6835 54.2341 12.2317 51.3664C12.0002 50.9092 12.1889 50.3537 12.6533 50.1255C13.1178 49.8976 13.6818 50.0834 13.9133 50.5408C15.0496 52.7851 18.7669 54.2824 22.3621 55.7303C27.2116 57.6836 32.226 59.7031 32.337 64.0126C32.3502 64.5233 31.9404 64.948 31.4217 64.9609C31.4134 64.9611 31.4053 64.9611 31.3972 64.9611Z" fill="#333333"/>
<path d="M12.8226 48.6098C12.7266 48.6098 12.6287 48.5951 12.5325 48.5642C12.0391 48.4064 11.7687 47.8846 11.929 47.3987C13.0268 44.0675 17.4107 42.3016 21.6501 40.5939C26.1809 38.7689 30.4606 37.0451 30.4606 33.8822C30.4606 32.1473 29.2117 30.7214 26.4111 29.2587C25.9527 29.0195 25.7781 28.4594 26.0212 28.0079C26.2646 27.5566 26.8331 27.3847 27.2913 27.6239C29.4584 28.7556 32.3396 30.6358 32.3396 33.8821C32.3396 38.2873 27.2671 40.3304 22.3616 42.3065C18.5188 43.8543 14.5451 45.4551 13.7163 47.9697C13.5871 48.3611 13.2186 48.6098 12.8226 48.6098Z" fill="#333333"/>
<path d="M23.8443 27.989C23.7222 27.989 23.598 27.9655 23.4785 27.9155C22.876 27.6642 22.2629 27.4174 21.6498 27.1704C16.7444 25.1946 11.6719 23.1514 11.6719 18.7462C11.6719 14.341 16.7444 12.2978 21.6498 10.3218C26.1807 8.49676 30.4603 6.77295 30.4603 3.6101C30.4603 2.86884 30.2347 2.19641 29.7704 1.55433C29.4694 1.13818 29.568 0.560497 29.9906 0.264067C30.413 -0.0323632 30.9995 0.0647815 31.3007 0.480931C31.9897 1.43387 32.3391 2.48655 32.3391 3.60992C32.3391 8.01511 27.2666 10.0583 22.3612 12.0343C17.8303 13.8595 13.5507 15.5833 13.5507 18.7462C13.5507 21.909 17.8303 23.6328 22.3612 25.4579C22.9814 25.7077 23.6016 25.9575 24.2111 26.2115C24.6889 26.4108 24.9123 26.9537 24.7099 27.4243C24.5583 27.7771 24.2103 27.989 23.8443 27.989Z" fill="#333333"/>
<path opacity="0.25" d="M35.7425 62.3566C31.9923 61.0521 28.5616 59.0777 25.6005 56.5815C18.7258 50.7899 14.3688 42.1856 14.3688 32.5785C14.3688 24.0593 17.7958 16.3266 23.3647 10.6478C26.4328 7.51884 30.1511 5.01158 34.3052 3.33884C36.0375 2.64217 37.8461 2.09205 39.714 1.69996C37.5479 1.24514 35.3019 1.00366 32.9981 1.00366C28.7068 1.00366 24.6147 1.83448 20.8739 3.33884C16.7198 5.01158 13.0016 7.51884 9.9334 10.6478C4.36451 16.3266 0.9375 24.0593 0.9375 32.5785C0.9375 42.1856 5.29454 50.7899 12.1692 56.5815C15.1303 59.0777 18.561 61.0521 22.3112 62.3566C25.6537 63.5205 29.2517 64.1533 32.9981 64.1533C35.3006 64.1533 37.5464 63.9127 39.7119 63.4583C38.355 63.1733 37.0297 62.8047 35.7425 62.3566Z" fill="black"/>
<path d="M47.0326 9.73335C46.8624 9.73335 46.6899 9.68765 46.5349 9.59217C45.4258 8.9079 44.2581 8.29783 43.0643 7.77899C42.5897 7.57267 42.3746 7.02644 42.5841 6.55903C42.7934 6.09181 43.3478 5.87976 43.8228 6.08626C45.0989 6.64101 46.347 7.29289 47.5322 8.02416C47.9719 8.29543 48.1051 8.86627 47.8296 9.29944C47.6513 9.57959 47.3455 9.73335 47.0326 9.73335Z" fill="white"/>
<path d="M51.3732 53.7247C51.1222 53.7247 50.8719 53.6263 50.687 53.4316C50.3325 53.0584 50.3524 52.4729 50.7312 52.124C56.3555 46.9416 59.453 39.9539 59.453 32.4482C59.453 25.117 56.3213 17.9893 50.861 12.8927C50.4845 12.5411 50.4685 11.9556 50.8255 11.5846C51.1821 11.2138 51.777 11.1981 52.1535 11.5495C57.9865 16.9938 61.332 24.6111 61.332 32.448C61.332 40.4714 58.0232 47.939 52.015 53.4749C51.8337 53.642 51.6032 53.7247 51.3732 53.7247Z" fill="white"/>
<path d="M47.4209 56.7709C47.1134 56.7709 46.812 56.6223 46.632 56.3493C46.3496 55.9208 46.4732 55.3477 46.9086 55.0696C47.3877 54.7634 47.8632 54.4381 48.3222 54.1026C48.7391 53.798 49.3274 53.8841 49.6365 54.2941C49.9457 54.7045 49.8585 55.2839 49.4418 55.5885C48.9514 55.9469 48.4434 56.2946 47.9316 56.6217C47.7736 56.7226 47.5962 56.7709 47.4209 56.7709Z" fill="white"/>
<path d="M33 65C32.4501 65 31.896 64.9865 31.353 64.96C13.7719 64.1085 0 49.8504 0 32.5C0 24.2536 3.1403 16.3903 8.84259 10.3588C14.515 4.35875 22.1944 0.71369 30.4658 0.0951093C31.3074 0.0320115 32.1602 0 33 0C40.2044 0 47.0502 2.24599 52.7977 6.495C56.807 9.46042 60.1288 13.346 62.4041 17.732C64.79 22.3311 66 27.2999 66 32.5C66 41.3059 62.4821 49.5499 56.0946 55.7132C49.8912 61.7019 41.6891 65 33 65ZM33 1.85038C32.2075 1.85038 31.4028 1.88054 30.6082 1.9403C22.8088 2.52354 15.5673 5.96099 10.2177 11.6198C4.84028 17.3077 1.87884 24.7231 1.87884 32.5C1.87884 48.8625 14.866 62.3088 31.4454 63.1119H31.4458C31.9582 63.1369 32.4809 63.1496 33 63.1496C41.1942 63.1496 48.929 60.0393 54.7796 54.3916C60.8037 48.579 64.1212 40.8045 64.1212 32.5C64.1212 27.5954 62.9807 22.9099 60.7312 18.5739C58.585 14.4372 55.4516 10.7721 51.6697 7.97475C46.2504 3.96813 39.7943 1.85038 33 1.85038Z" fill="#333333"/>
</g>
<defs>
<clipPath id="clip0_649_11288">
<rect width="66" height="65" fill="white"/>
</clipPath>
</defs>
</svg>
