<svg width="66" height="66" viewBox="0 0 66 66" fill="none" xmlns="http://www.w3.org/2000/svg">
<g clip-path="url(#clip0_649_11374)">
<path d="M56.4629 33.0781C56.4629 34.7774 56.2833 36.4353 55.9406 38.0324C54.9569 42.6358 52.629 46.7404 49.3864 49.9167C47.8211 51.4516 46.0403 52.771 44.095 53.8224C42.1138 54.8959 39.9627 55.693 37.6914 56.1642C36.1399 56.4847 34.5331 56.6532 32.8877 56.6532C32.4925 56.6532 32.1002 56.6436 31.7106 56.6242C27.2661 56.4059 23.1462 54.9567 19.684 52.6094C18.6008 51.8771 17.5812 51.0551 16.6376 50.1571C15.6 49.1706 14.6537 48.0902 13.8095 46.9297C10.9925 43.0558 9.32493 38.2893 9.3125 33.1361C9.3125 33.0269 9.31388 32.9192 9.31388 32.81C9.31526 32.7202 9.31803 32.6304 9.31941 32.542C9.32079 32.4633 9.32217 32.3845 9.32493 32.3057C9.49487 27.0171 11.4083 22.1678 14.5072 18.3145C15.1041 17.5726 15.7437 16.868 16.4248 16.2049C19.4256 13.2759 23.2056 11.14 27.4249 10.1398C28.6103 9.85793 29.8303 9.66728 31.0764 9.57195C31.6747 9.52636 32.2784 9.50287 32.8877 9.50287C36.9578 9.50287 40.7861 10.5335 44.1268 12.3517C45.1422 12.9015 46.1121 13.5246 47.0309 14.214C47.9206 14.8813 48.7606 15.6108 49.5453 16.3955C49.9294 16.7796 50.301 17.1761 50.6561 17.5865C52.3582 19.5345 53.7453 21.7643 54.7345 24.1987C55.8494 26.9397 56.4629 29.9377 56.4629 33.0781Z" fill="#F9911E"/>
<path d="M55.1318 25.2501C51.3283 30.3219 46.5978 35.7736 41.1848 41.1852C35.7234 46.6479 30.2206 51.4157 25.1088 55.2372C25.0784 55.2607 25.0466 55.2828 25.0162 55.3062C23.4081 54.737 21.8814 53.9993 20.457 53.1123C20.4874 53.0971 20.5164 53.0805 20.5468 53.064H20.5482C20.5537 53.0612 20.5606 53.0557 20.5662 53.0529C25.7264 50.229 32.2584 45.1655 38.7118 38.7122C45.1016 32.3224 50.1277 25.8566 52.9682 20.7213C53.6494 21.8224 54.2407 22.9857 54.7339 24.1987C54.8748 24.5455 55.0074 24.895 55.1318 25.2501Z" fill="#F9A24B"/>
<path d="M43.9394 15.7196C43.8141 15.7196 43.6874 15.6854 43.5734 15.614C42.7581 15.1032 41.8995 14.6477 41.0215 14.2602C40.6725 14.1062 40.5143 13.6983 40.6683 13.3493C40.8223 13.0005 41.2301 12.8423 41.5792 12.9963C42.5179 13.4105 43.4355 13.8974 44.3067 14.4433C44.6301 14.6458 44.728 15.0722 44.5254 15.3955C44.3943 15.6048 44.1694 15.7196 43.9394 15.7196Z" fill="white"/>
<path d="M47.1323 48.5655C46.9477 48.5655 46.7637 48.492 46.6278 48.3467C46.3671 48.068 46.3817 47.6309 46.6602 47.3703C50.7186 43.5733 53.0463 38.2188 53.0463 32.6795C53.0463 27.1084 50.8123 21.9231 46.7557 18.0785C46.4788 17.816 46.4671 17.3788 46.7296 17.1018C46.9918 16.8249 47.4292 16.8132 47.7061 17.0756C52.0408 21.1837 54.4279 26.7252 54.4279 32.6793C54.4279 38.5995 51.9408 44.3219 47.6041 48.379C47.4709 48.5038 47.3014 48.5655 47.1323 48.5655Z" fill="white"/>
<path d="M44.2267 50.8399C44.0005 50.8399 43.7789 50.729 43.6466 50.5252C43.4389 50.2052 43.5298 49.7773 43.85 49.5697C44.2018 49.3413 44.5515 49.0983 44.8895 48.8475C45.196 48.6201 45.6285 48.6842 45.8559 48.9907C46.0833 49.2971 46.0192 49.7297 45.7127 49.9571C45.3517 50.225 44.9782 50.4844 44.6022 50.7284C44.486 50.8039 44.3555 50.8399 44.2267 50.8399Z" fill="white"/>
<path opacity="0.25" d="M49.5432 16.3956C48.7584 15.6109 47.9184 14.8814 47.0287 14.2141C46.11 13.5247 45.1401 12.9016 44.1246 12.3517C44.1702 12.4346 44.2255 12.5106 44.2932 12.5783C45.7577 14.04 44.9923 17.4705 42.5552 21.9302C42.5524 21.9357 42.5469 21.9426 42.5441 21.9481C42.5165 21.9993 42.4875 22.0504 42.4585 22.1029C39.6179 27.2382 34.5918 33.704 28.202 40.0937C27.0796 41.2161 25.955 42.2958 24.8356 43.3291C23.7023 44.3752 21.8744 44.0122 21.2311 42.6104C19.8602 39.6223 19.0952 36.2988 19.0952 32.7961C19.0952 26.4354 21.6152 20.6618 25.7102 16.4217C27.9663 14.0855 30.7004 12.2134 33.7551 10.9645C35.0289 10.4443 36.3588 10.0336 37.7324 9.74083C36.1396 9.40124 34.488 9.22095 32.7939 9.22095C29.6384 9.22095 26.6293 9.84127 23.8786 10.9645C20.824 12.2134 18.0898 14.0855 15.8337 16.4217C11.7387 20.6618 9.21875 26.4354 9.21875 32.7961C9.21875 39.6196 12.1192 45.764 16.7532 50.0691C16.7141 50.0981 16.6744 50.1282 16.6353 50.1571C17.5789 51.0551 18.5985 51.8772 19.6817 52.6094C19.7306 52.5689 19.7796 52.5276 19.8285 52.487C21.4085 53.5298 23.1207 54.3886 24.9355 55.0297C27.3934 55.8987 30.0391 56.3712 32.7939 56.3712C34.487 56.3712 36.1384 56.1916 37.7308 55.8522C36.7331 55.6395 35.7585 55.3644 34.812 55.0297C32.0544 54.0556 29.5316 52.5815 27.3543 50.7178C27.237 50.6175 27.1208 50.5161 27.0055 50.4134C25.7424 49.2889 25.7409 47.3172 26.9727 46.1583C28.2056 44.9985 29.4413 43.8005 30.675 42.5666C36.088 37.155 40.8185 31.7033 44.622 26.6315C44.6565 26.5846 44.6925 26.5376 44.727 26.4906C47.0812 23.342 49.0762 20.3399 50.654 17.5864C50.2989 17.1762 49.9272 16.7797 49.5432 16.3956Z" fill="black"/>
<path d="M64.2423 1.75916C61.1517 -1.33004 51.9283 2.5135 40.8937 10.7629L40.7942 10.8624C42.3955 11.4302 43.9166 12.1679 45.3354 13.0535L45.4543 12.9347C49.914 10.4962 53.3444 9.73361 54.8048 11.1967C56.2692 12.6584 55.5038 16.0888 53.0667 20.5486C53.064 20.5541 53.0584 20.561 53.0557 20.5665C53.0281 20.6176 52.999 20.6688 52.97 20.7213C50.1295 25.8566 45.1033 32.3223 38.7136 38.7121C32.2602 45.1655 25.7281 50.2289 20.568 53.0529C20.5624 53.0556 20.5555 53.0612 20.55 53.0639H20.5486C20.5182 53.0805 20.4892 53.0971 20.4588 53.1123C19.3688 53.705 18.3409 54.1982 17.389 54.5795C14.4863 55.7469 12.291 55.8975 11.1981 54.8033C9.7461 53.3527 10.4894 49.965 12.8823 45.5537C11.9939 44.132 11.252 42.6082 10.68 41.0042C2.48869 51.9904 -1.31755 61.1613 1.76198 64.2408C4.15487 66.6351 10.2269 64.8681 17.972 60.1155H17.9734C20.1991 58.7505 22.563 57.1382 25.018 55.3062C25.0484 55.2827 25.0802 55.2606 25.1106 55.2371C30.2224 51.4157 35.7252 46.6479 41.1866 41.1851C46.5996 35.7735 51.3301 30.3218 55.1336 25.2501C55.1681 25.2031 55.204 25.1561 55.2386 25.1091C63.4879 14.0731 67.3329 4.84974 64.2423 1.75916Z" fill="#F7DB9C"/>
<path d="M32.9993 57.3025C30.2046 57.3025 27.4646 56.832 24.8555 55.9042L25.3183 54.6025C27.7787 55.4773 30.363 55.9208 32.9994 55.9208C45.6381 55.9208 55.9204 45.6384 55.9204 32.9998C55.9204 30.3643 55.4768 27.7804 54.602 25.3201L54.5621 25.2078V25.0886L55.2549 25.0879L55.9037 24.8572C56.8316 27.4666 57.302 30.2061 57.302 32.9998C57.3019 46.4003 46.3997 57.3025 32.9993 57.3025Z" fill="#333333"/>
<path d="M4.85086 66.0002C3.3151 66.0002 2.11866 65.5766 1.2712 64.729C-0.454938 63.003 -0.423023 59.8279 1.36611 55.2922C2.99623 51.1593 6.05435 46.0367 10.2097 40.478L11.3163 41.3051C7.23338 46.7669 4.23716 51.7788 2.65139 55.7991C1.12724 59.6635 0.983971 62.488 2.24811 63.7521C3.51239 65.0163 6.33688 64.8731 10.2011 63.3488C14.2214 61.7631 19.2332 58.7668 24.695 54.6839C29.917 50.7801 35.4505 45.9435 40.6969 40.6971C45.943 35.451 50.7795 29.9176 54.6835 24.6953C58.7665 19.2335 61.7627 14.2216 63.3485 10.2013C64.8728 6.33694 65.0159 3.51245 63.7519 2.24831C62.4878 0.984167 59.6633 1.12716 55.7987 2.65159C51.7785 4.23722 46.7667 7.23358 41.3049 11.3165L40.4776 10.21C46.0364 6.05454 51.1591 2.99657 55.292 1.36645C59.8277 -0.422552 63.0028 -0.454604 64.729 1.2714C66.455 2.9974 66.4231 6.17253 64.6339 10.7084C63.0038 14.8412 59.9457 19.9638 55.7903 25.5226C51.8473 30.797 46.9659 36.3822 41.6738 41.6741C36.3814 46.9665 30.7964 51.8478 25.5224 55.7905C19.9636 59.9459 14.8409 63.004 10.708 64.6341C8.39943 65.5447 6.44285 66.0001 4.85086 66.0002ZM13.3529 56.2312C12.2228 56.2314 11.3346 55.9194 10.7075 55.2922C9.04283 53.6275 9.60389 50.1102 12.3299 45.1206L13.5422 45.783C11.2435 49.9903 10.549 53.1799 11.6843 54.3151C12.8223 55.4527 16.0109 54.7583 20.2147 52.4575L20.3708 52.3726C25.6318 49.4666 32.1287 44.3186 38.2235 38.2239C44.3637 32.0837 49.5448 25.5332 52.4406 20.2495L52.4559 20.2213C54.7573 16.01 55.4516 12.8205 54.3148 11.685C53.1779 10.547 49.9891 11.2415 45.7841 13.5412L45.1211 12.329C50.1091 9.60132 53.6262 9.04068 55.2917 10.7081C56.9569 12.3717 56.3981 15.886 53.675 20.8711L53.6602 20.8987C50.7056 26.2952 45.4351 32.966 39.2002 39.2007C32.9641 45.4369 26.2933 50.7067 20.8981 53.6592L20.8858 53.6658C20.8744 53.672 20.8636 53.6777 20.8538 53.6825L20.851 53.6839C17.7524 55.3773 15.2225 56.2311 13.3529 56.2312Z" fill="#333333"/>
<path d="M4.8589 62.8165C4.21909 62.8165 3.73029 62.6945 3.5178 62.482C3.4718 62.436 2.41255 61.2989 4.32188 56.4579C5.35779 53.8318 7.03129 50.749 9.24471 47.3731C7.49163 51.5952 7.55366 54.6783 9.4373 56.5619C10.1079 57.2325 11.3327 58.0321 13.3583 58.0321C14.8279 58.0321 16.5863 57.6071 18.6096 56.765C12.7382 60.6119 7.78742 62.8165 4.85959 62.8165C4.85917 62.8165 4.85917 62.8165 4.8589 62.8165ZM56.7572 18.6238C58.5091 14.4033 58.446 11.3204 56.5607 9.437C55.892 8.76762 54.6675 7.96769 52.6412 7.96769C51.1733 7.96769 49.4162 8.39197 47.3944 9.23238C53.2641 5.38705 58.2135 3.18372 61.1409 3.18372C61.7804 3.18372 62.2691 3.30557 62.4816 3.51806C62.5277 3.56406 63.5871 4.7011 61.6778 9.54213C60.6423 12.1674 58.9692 15.2493 56.7572 18.6238Z" fill="#DDBE7F"/>
<path d="M20.6043 53.4908L20.0086 53.2032C16.8745 51.2516 14.189 48.5654 12.2419 45.435C11.3352 43.9772 10.584 42.4175 10.0092 40.7997C9.0882 38.2135 8.62109 35.4963 8.62109 32.7236C8.62109 19.4345 19.4326 8.62299 32.7217 8.62299C35.4955 8.62299 38.2134 9.08996 40.7999 10.0112C42.4132 10.585 43.972 11.3361 45.433 12.2435C48.5672 14.1929 51.2536 16.8797 53.2016 20.0136L52.3872 21.3862L52.0284 20.743C50.1914 17.7881 47.6586 15.2548 44.7035 13.4169C43.3265 12.5616 41.8572 11.8537 40.3365 11.3128C37.899 10.4447 35.3371 10.0046 32.7217 10.0046C20.1943 10.0046 10.0027 20.1963 10.0027 32.7236C10.0027 35.3379 10.4428 37.8992 11.3107 40.3367C11.8527 41.8619 12.5608 43.3316 13.4152 44.7054C15.2441 47.6461 17.7644 50.1711 20.7057 52.0098L21.1966 52.2427L20.6043 53.4908Z" fill="#333333"/>
</g>
<defs>
<clipPath id="clip0_649_11374">
<rect width="66" height="66" fill="white"/>
</clipPath>
</defs>
</svg>
