<svg width="122" height="235" viewBox="0 0 122 235" fill="none" xmlns="http://www.w3.org/2000/svg">
<path d="M87 144.5L77.5 138.5V144L78.1539 148.327L80.5 154.5L83.6539 159.827L88 162L88.3925 162.196C90.1256 163.063 91.9484 163.737 93.8282 164.207L95.8651 164.716C96.6188 164.905 97.3929 165 98.1699 165C99.3789 165 100.577 164.769 101.699 164.32L102.5 164C104.162 163.335 105.89 162.852 107.656 162.557L108 162.5L111 162L113.755 161.694C114.909 161.566 116.032 161.234 117.071 160.715L117.966 160.267C118.32 160.09 118.643 159.857 118.922 159.578L119.099 159.401C119.676 158.824 120 158.042 120 157.226C120 156.749 119.889 156.278 119.675 155.851L119.5 155.5C119.171 154.842 118.694 154.27 118.106 153.829L117.922 153.692C117.314 153.235 116.62 152.905 115.882 152.72L112.661 151.915C111.555 151.639 110.43 151.448 109.295 151.345L105.5 151H103.521C102.509 151 101.498 150.916 100.5 150.75L99 150.5L98 150.25L97 150L95.75 149.5C94.918 149.167 94.114 148.768 93.3456 148.307L87 144.5Z" fill="#BCDB7A" stroke="#455D11" stroke-width="3"/>
<path d="M19.9291 121.911L27 128L29.4758 130.476C30.4517 131.452 31 132.775 31 134.156C31 134.715 30.9098 135.271 30.733 135.801L30.7261 135.822C30.576 136.272 30.3666 136.7 30.1035 137.095L29.5 138L28.9487 138.735C28.3203 139.573 27.8312 140.506 27.5 141.5C26.8366 143.822 26.5 146.225 26.5 148.64V153.5L24.5 170L23.4048 176.571C22.8026 180.184 22.5 183.841 22.5 187.504V188.217C22.5 191.732 22.1837 195.24 21.555 198.698L20.9817 201.851C20.6614 203.613 20.165 205.338 19.5 207C18.5071 209.317 17.1301 211.449 15.4269 213.307L13.1228 215.821C12.7085 216.273 12.3365 216.762 12.0115 217.282L11.9608 217.363C10.6973 219.384 10.2163 221.798 10.6082 224.149L10.7088 224.753C10.9001 225.901 11.3644 226.986 12.0627 227.917C13.296 229.561 15.1685 230.606 17.2156 230.792L19.5 231H20.7574C23.4739 231 26.0791 229.921 28 228L29.4948 226.505C30.1384 225.862 31.0113 225.5 31.9215 225.5C32.9234 225.5 33.8752 225.938 34.5272 226.698L35.8729 228.268C36.2894 228.754 36.7633 229.188 37.2841 229.56L39.0922 230.852C39.6965 231.283 40.3336 231.667 40.9978 231.999C42.9721 232.986 45.1492 233.5 47.3565 233.5H48.2882C49.0915 233.5 49.8904 233.38 50.6582 233.144C52.0279 232.722 53.2605 231.943 54.2289 230.887L54.3761 230.726C55.1189 229.916 55.7044 228.974 56.1028 227.95L57.25 225L59.3032 220.894C59.4339 220.632 59.5971 220.387 59.7873 220.165C60.5447 219.281 61.6901 218.819 62.8482 218.935C63.2791 218.978 63.6986 219.099 64.0859 219.293L64.2908 219.395C65.0816 219.791 65.7479 220.397 66.2165 221.146L66.4216 221.475C66.64 221.824 66.8229 222.194 66.9675 222.58L66.9873 222.633C67.3252 223.534 67.8521 224.352 68.5325 225.033L68.7359 225.236C69.243 225.743 69.8155 226.18 70.4382 226.536L70.9985 226.856C72.3223 227.613 73.7699 228.128 75.2739 228.379L77.4837 228.747C78.4886 228.915 79.5133 228.927 80.5218 228.783C83.9275 228.296 86.8391 226.082 88.2181 222.93L88.9931 221.159C89.3274 220.394 89.5 219.569 89.5 218.735V216.409C89.5 215.841 89.7839 215.311 90.2565 214.996C90.7219 214.685 91.3103 214.624 91.8297 214.832L92.6969 215.179C93.2242 215.39 93.6918 215.727 94.0587 216.16L98.1427 220.987C98.7127 221.66 99.3511 222.273 100.048 222.815L101.988 224.324C102.968 225.086 104.174 225.5 105.416 225.5H105.5C108.538 225.5 111 223.038 111 220C111 214.72 109.945 209.493 107.896 204.627L107 202.5L98.5 188L91 176L85.5 164.5L79.4016 153.379C77.826 150.506 77 147.282 77 144.005V134.72C77 131.622 79.0323 128.89 82 128L85.5 127L89 126L92.25 124.75L92.4577 124.67C94.4808 123.892 96.4212 122.914 98.25 121.75L101 120L103.625 118.125L106.25 116.25C107.331 115.502 108.343 114.657 109.273 113.727L110 113L111.125 111.625L112.25 110.25L113.051 109.182C113.516 108.562 113.914 107.896 114.238 107.192C114.905 105.748 115.25 104.176 115.25 102.585V100.75L115.243 100.69C114.999 98.655 114.497 96.6589 113.75 94.75L113.692 94.6247C112.577 92.2373 112 89.6346 112 87V80.5V79.6643C112 75.5665 111.562 71.4804 110.695 67.4755C107.376 52.1584 96.6062 41.9562 82.6452 34.8344C82.4325 34.7259 82.2175 34.6144 82 34.5C76.2009 31.4479 71.306 29.8939 65.4321 28.8005C56.92 27.216 48.1375 27.5665 39.5819 28.8962C37.938 29.1517 36.3147 29.4504 34.5654 29.8675C29.8019 31.0034 25.4823 33.4502 21.5058 36.3083L19.5494 37.7145C14.2554 41.5196 9.91618 46.5009 6.87309 52.2668C3.67272 58.3306 2 65.0837 2 71.9403V82.8119C2 88.2367 2.85548 93.6275 4.53493 98.7859C7.45567 107.757 12.78 115.755 19.9291 121.911Z" fill="#BCDB7A" stroke="#455D11" stroke-width="3"/>
<ellipse cx="35.6706" cy="86.0479" rx="13.4411" ry="22.0034" transform="rotate(-60 35.6706 86.0479)" fill="#455D11" stroke="#455D11" stroke-width="3"/>
<ellipse cx="11.6939" cy="19.1432" rx="11.6939" ry="19.1432" transform="matrix(-0.604893 -0.796307 -0.796307 0.604893 117.137 85.1238)" fill="#455D11" stroke="#455D11" stroke-width="3"/>
<circle cx="71" cy="99" r="1.5" fill="#455D11" stroke="#455D11" stroke-width="2"/>
<path d="M37.5 142.5L41.6987 145.019C43.893 146.336 45.9372 147.888 47.7949 149.648L48.5136 150.329C52.4381 154.047 57.2555 156.689 62.5 158V158L67.3818 159.22C68.1198 159.405 68.8135 159.735 69.4221 160.192L69.6056 160.329C70.1938 160.77 70.6712 161.342 71 162L71.1753 162.351C71.3888 162.778 71.5 163.249 71.5 163.726V163.726C71.5 164.542 71.176 165.324 70.5992 165.901L70.4222 166.078C70.1426 166.357 69.8197 166.59 69.4659 166.767L68.5708 167.215C67.5318 167.734 66.4091 168.066 65.2546 168.194L62.5 168.5H59.5H56L54.3475 168.335C52.2224 168.122 50.2955 166.994 49.0708 165.244V165.244C48.0578 163.797 46.5564 162.764 44.8427 162.336L42.8626 161.841C41.9569 161.614 41.0787 161.289 40.2438 160.872L38.5 160" stroke="#455D11" stroke-width="3" stroke-linecap="round"/>
<path d="M86.5475 37.1835C86.3727 37.7074 86.6557 38.2738 87.1796 38.4486C87.7035 38.6234 88.2699 38.3404 88.4447 37.8165L86.5475 37.1835ZM88.847 32.8988L89.8225 33.1188L89.8225 33.1188L88.847 32.8988ZM108.385 18.0857L108.246 17.0953L108.385 18.0857ZM103.664 18C103.664 20.9455 106.052 23.3333 108.997 23.3333C111.943 23.3333 114.331 20.9455 114.331 18C114.331 15.0545 111.943 12.6667 108.997 12.6667C106.052 12.6667 103.664 15.0545 103.664 18ZM98.4458 20.7149L98.8846 21.6135L98.8846 21.6135L98.4458 20.7149ZM88.4447 37.8165C89.1592 35.6748 89.5852 34.1709 89.8225 33.1188L87.8715 32.6787C87.6547 33.64 87.2513 35.0739 86.5475 37.1835L88.4447 37.8165ZM108.523 19.0761L109.136 18.9904L108.859 17.0096L108.246 17.0953L108.523 19.0761ZM98.8846 21.6135C101.795 20.1922 105.165 19.5459 108.523 19.0761L108.246 17.0953C104.857 17.5694 101.219 18.2476 98.0069 19.8164L98.8846 21.6135ZM89.8225 33.1188C91.0052 27.8749 94.0618 23.969 98.8846 21.6135L98.0069 19.8164C92.6317 22.4417 89.1858 26.8513 87.8715 32.6787L89.8225 33.1188Z" fill="#455D11"/>
<path d="M32.5973 50.1049C32.6552 50.6542 33.1475 51.0524 33.6967 50.9945C34.2459 50.9365 34.6442 50.4443 34.5862 49.8951L32.5973 50.1049ZM33.5841 26.6935L34.5141 27.061L34.5141 27.061L33.5841 26.6935ZM58.6312 6.06445L58.4898 5.07451L58.4898 5.07451L58.6312 6.06445ZM53.7491 6C53.7491 8.94552 56.1369 11.3333 59.0824 11.3333C62.0279 11.3333 64.4158 8.94552 64.4158 6C64.4158 3.05448 62.0279 0.666667 59.0824 0.666667C56.1369 0.666667 53.7491 3.05448 53.7491 6ZM45.9876 9.67075L45.4961 8.79985L45.4961 8.79985L45.9876 9.67075ZM34.5862 49.8951C34.322 47.3911 34.002 45.144 33.7207 43.0876C33.4383 41.0232 33.1959 39.1576 33.0773 37.3747C32.8416 33.8349 33.0959 30.6497 34.5141 27.061L32.654 26.326C31.0986 30.2622 30.8322 33.7602 31.0817 37.5075C31.2055 39.3681 31.4571 41.297 31.7391 43.3586C32.0222 45.4283 32.3371 47.639 32.5973 50.1049L34.5862 49.8951ZM58.7727 7.0544L59.2238 6.98995L58.941 5.01005L58.4898 5.07451L58.7727 7.0544ZM46.479 10.5416C50.1308 8.48083 54.4219 7.67594 58.7727 7.0544L58.4898 5.07451C54.1322 5.69702 49.5054 6.53729 45.4961 8.79985L46.479 10.5416ZM34.5141 27.061C37.1213 20.4634 40.6139 13.8515 46.479 10.5416L45.4961 8.79985C38.9752 12.4798 35.2737 19.6968 32.654 26.326L34.5141 27.061Z" fill="#455D11"/>
</svg>
