<svg width="65" height="66" viewBox="0 0 65 66" fill="none" xmlns="http://www.w3.org/2000/svg">
<g clip-path="url(#clip0_649_11359)">
<path d="M30.9241 65.0211C14.2189 64.1869 0.925781 50.1688 0.925781 33C0.925781 16.1204 13.7711 2.29028 30.0748 1.03333C30.876 0.971332 31.6846 0.939392 32.5006 0.939392C39.6079 0.939392 46.1656 3.32364 51.4429 7.34625C59.1127 13.1951 64.0754 22.5085 64.0754 33C64.0754 41.9714 60.4468 50.0805 54.5978 55.8993C48.9042 61.5659 41.103 65.0605 32.5006 65.0605C31.9714 65.0605 31.4459 65.0474 30.9241 65.0211Z" fill="#EAC16E"/>
<path d="M43.9102 39.8303C43.9102 39.8303 53.0113 33.7094 57.689 41.4007C62.3668 49.0919 55.7731 60.0482 36.0335 60.396C21.6306 46.6855 24.1062 34.1177 32.6579 31.604C41.2096 29.0903 43.9102 39.8303 43.9102 39.8303Z" fill="#EFD4A5"/>
<path d="M43.9075 40.7702C43.4949 40.7702 43.1185 40.4878 43.0118 40.063C43.0075 40.0459 42.5371 38.223 41.4117 36.3393C41.1466 35.8957 41.2859 35.3179 41.7228 35.0489C42.1599 34.7797 42.729 34.9213 42.9936 35.3649C44.2682 37.498 44.7835 39.5136 44.8048 39.5983C44.9312 40.1011 44.6321 40.6125 44.1374 40.741C44.0604 40.7606 43.9832 40.7702 43.9075 40.7702Z" fill="#333333"/>
<path d="M29.4806 34.144C29.2008 34.144 28.9246 34.0157 28.7427 33.7722C28.434 33.3588 28.5138 32.7696 28.9209 32.4561C29.9411 31.6705 31.1113 31.0804 32.3988 30.702C35.3996 29.82 38.0698 30.3191 40.3373 32.1857C40.7344 32.5124 40.7953 33.1041 40.4733 33.5071C40.1515 33.9103 39.5685 33.9717 39.1721 33.6452C37.403 32.1889 35.2972 31.8058 32.9134 32.5068C31.8446 32.8209 30.8774 33.3076 30.039 33.9533C29.8719 34.0816 29.6754 34.144 29.4806 34.144Z" fill="#333333"/>
<path d="M26.5618 38.0039C26.443 38.0039 26.3225 37.9806 26.2063 37.9314C25.7347 37.7318 25.5115 37.1819 25.7082 36.7028C25.8994 36.237 26.1231 35.7842 26.373 35.3574C26.634 34.9115 27.2016 34.765 27.6413 35.0299C28.0804 35.295 28.2247 35.8714 27.9636 36.3175C27.7582 36.6684 27.5741 37.0412 27.4163 37.4254C27.2683 37.7863 26.9241 38.0039 26.5618 38.0039Z" fill="#333333"/>
<path d="M36.0316 61.3356C35.7966 61.3356 35.5705 61.2448 35.3988 61.0814C25.5152 51.6731 24.55 44.0463 24.8544 40.3374C24.8968 39.8204 25.3442 39.4362 25.8531 39.4792C26.3623 39.5222 26.7407 39.9763 26.6981 40.4934C26.2339 46.1519 29.7633 53.0454 36.3911 59.4488C37.7417 59.4152 39.0605 59.3293 40.3167 59.1931C40.8256 59.1373 41.2808 59.5118 41.335 60.0275C41.3892 60.5435 41.0213 61.0062 40.5134 61.0613C39.0864 61.2161 37.5841 61.3081 36.0477 61.3352C36.0422 61.3354 36.0368 61.3356 36.0316 61.3356Z" fill="#333333"/>
<path d="M44.1577 60.4844C43.7269 60.4844 43.3413 60.1774 43.2519 59.7323C43.15 59.2239 43.473 58.7279 43.9737 58.6244C50.7733 57.2177 55.701 53.9985 57.4931 49.7919C58.6119 47.1663 58.4015 44.3615 56.9012 41.8942C55.821 40.1182 54.3901 39.0194 52.6481 38.6286C48.7518 37.7546 44.4622 40.5856 44.4193 40.6142C43.9926 40.8998 43.4192 40.7803 43.1379 40.3479C42.8565 39.9154 42.9727 39.3335 43.3985 39.0472C43.599 38.9119 48.3721 35.751 53.0373 36.7919C55.2908 37.2946 57.1205 38.6791 58.4755 40.9071C60.3031 43.9119 60.5574 47.3322 59.1914 50.5378C57.1556 55.3159 51.7437 58.9342 44.3431 60.4653C44.2809 60.4782 44.2187 60.4844 44.1577 60.4844Z" fill="#333333"/>
<path opacity="0.25" d="M35.2034 63.3157C31.5101 61.9911 28.1313 59.9864 25.2151 57.4519C18.4446 51.5711 14.1536 42.8345 14.1536 33.0795C14.1536 24.4293 17.5286 16.5776 23.0132 10.8115C26.0348 7.63433 29.6967 5.0885 33.7879 3.39002C35.4939 2.68264 37.2751 2.12406 39.1148 1.72593C36.9815 1.26411 34.7695 1.01892 32.5006 1.01892C28.2743 1.01892 24.2442 1.86252 20.5601 3.39002C16.4689 5.0885 12.807 7.63433 9.78538 10.8115C4.30087 16.5776 0.925781 24.4293 0.925781 33.0795C0.925781 42.8345 5.2168 51.5711 11.9873 57.4519C14.9035 59.9864 18.2823 61.9911 21.9757 63.3157C25.2675 64.4975 28.8109 65.1401 32.5006 65.1401C34.7682 65.1401 36.98 64.8958 39.1127 64.4344C37.7766 64.145 36.4711 63.771 35.2034 63.3157Z" fill="black"/>
<path d="M46.3234 9.88309C46.1558 9.88309 45.9859 9.83687 45.8332 9.73973C44.7411 9.04512 43.5911 8.42567 42.415 7.89865C41.9478 7.68916 41.7359 7.13453 41.9423 6.65993C42.1486 6.18552 42.6941 5.97021 43.1624 6.17989C44.4192 6.74316 45.6484 7.40527 46.8154 8.1476C47.2484 8.42304 47.3796 9.00266 47.1083 9.4425C46.9327 9.72695 46.6315 9.88309 46.3234 9.88309Z" fill="white"/>
<path d="M50.5972 54.5513C50.35 54.5513 50.1036 54.4513 49.9215 54.2537C49.5723 53.8747 49.5919 53.2802 49.965 52.9259C55.4004 47.7624 58.5179 40.4806 58.5179 32.9476C58.5179 25.3713 55.5259 18.3197 50.0928 13.0912C49.722 12.7344 49.7063 12.1398 50.0578 11.7632C50.4091 11.3867 50.9949 11.3708 51.3657 11.7277C57.1712 17.3145 60.3683 24.8505 60.3683 32.9478C60.3683 40.9988 57.0373 48.7808 51.2291 54.2982C51.0508 54.4673 50.8235 54.5513 50.5972 54.5513Z" fill="white"/>
<path d="M46.7075 57.6442C46.4046 57.6442 46.1078 57.4934 45.9305 57.2162C45.6524 56.7811 45.7741 56.1992 46.2029 55.9168C46.6738 55.6064 47.1423 55.2759 47.5951 54.9347C48.0055 54.6255 48.585 54.7127 48.8894 55.1294C49.194 55.5461 49.1081 56.1346 48.6977 56.4437C48.2138 56.8081 47.7135 57.1612 47.2104 57.4928C47.0548 57.5952 46.8799 57.6442 46.7075 57.6442Z" fill="white"/>
<path d="M32.5 66C31.9575 66 31.4118 65.9863 30.878 65.9594C13.5633 65.0948 0 50.6172 0 33C0 24.6267 3.0929 16.6424 8.70861 10.5181C14.2949 4.4258 21.8579 0.72467 30.0038 0.0967604C30.8324 0.032504 31.6721 0 32.5 0C39.5953 0 46.3375 2.28054 51.9978 6.59493C55.9463 9.60596 59.2178 13.5513 61.4586 18.0048C63.8084 22.6746 65 27.7199 65 33C65 41.9414 61.5354 50.3122 55.2446 56.5705C49.1349 62.6512 41.0574 66 32.5 66ZM32.5 1.87884C31.719 1.87884 30.9264 1.90966 30.1445 1.96997C22.4632 2.56218 15.3317 6.05251 10.0631 11.7984C4.76694 17.5738 1.85038 25.1034 1.85038 33C1.85038 49.6142 14.6407 63.2676 30.9688 64.0828H30.9692C31.4729 64.1082 31.9878 64.1212 32.4998 64.1212C40.5699 64.1212 48.1875 60.963 53.9494 55.2284C59.8822 49.3264 63.1494 41.4323 63.1494 32.9998C63.1494 28.0198 62.0263 23.2621 59.8108 18.8595C57.6971 14.6593 54.6112 10.9377 50.8866 8.09725C45.5494 4.02918 39.1913 1.87884 32.5 1.87884Z" fill="#333333"/>
</g>
<defs>
<clipPath id="clip0_649_11359">
<rect width="65" height="66" fill="white"/>
</clipPath>
</defs>
</svg>
