<svg width="65" height="66" viewBox="0 0 65 66" fill="none" xmlns="http://www.w3.org/2000/svg">
<g clip-path="url(#clip0_649_11388)">
<path d="M39.0498 17.2599C40.0611 17.2599 40.8809 16.4274 40.8809 15.4006C40.8809 14.3738 40.0611 13.5414 39.0498 13.5414C38.0385 13.5414 37.2188 14.3738 37.2188 15.4006C37.2188 16.4274 38.0385 17.2599 39.0498 17.2599Z" fill="#20CE55"/>
<path d="M32.4987 47.2735C40.2623 47.2735 46.5559 40.8831 46.5559 33C46.5559 25.117 40.2623 18.7265 32.4987 18.7265C24.7351 18.7265 18.4414 25.117 18.4414 33C18.4414 40.8831 24.7351 47.2735 32.4987 47.2735Z" fill="#F9911E"/>
<path d="M32.5011 44.6978C38.8637 44.6978 44.0217 39.4605 44.0217 33C44.0217 26.5394 38.8637 21.3021 32.5011 21.3021C26.1384 21.3021 20.9805 26.5394 20.9805 33C20.9805 39.4605 26.1384 44.6978 32.5011 44.6978Z" fill="#F24125"/>
<path d="M32.5 66.0001C14.5794 66.0001 0 51.1965 0 33.0003C0 14.8042 14.5794 0.000488281 32.5 0.000488281C41.0565 0.000488281 49.1392 3.36143 55.2594 9.46436C55.5901 9.79412 55.5949 10.3337 55.2702 10.6694C54.9454 11.0051 54.4144 11.0102 54.0834 10.6803C48.2791 4.89227 40.6138 1.70465 32.5 1.70465C15.5048 1.70465 1.67834 15.7438 1.67834 33.0003C1.67834 50.2568 15.5048 64.2962 32.5 64.2962C49.4952 64.2962 63.3215 50.257 63.3215 33.0003C63.3215 27.3142 61.7977 21.743 58.915 16.8889C58.6757 16.4858 58.8034 15.9621 59.2003 15.7191C59.5973 15.4759 60.113 15.6058 60.3524 16.0088C63.3928 21.1286 65 27.0042 65 33.0005C64.9998 51.1965 50.4205 66.0001 32.5 66.0001Z" fill="#333333"/>
<path d="M51.3573 50.4182C51.1624 50.4182 50.9669 50.3498 50.8081 50.2101C50.4579 49.902 50.4199 49.3638 50.7234 49.0082C54.5178 44.5606 56.6076 38.8756 56.6076 33C56.6076 19.5022 45.7927 8.52093 32.4995 8.52093C26.6976 8.52093 21.0874 10.6527 16.7023 14.5233C16.3525 14.8319 15.8225 14.7944 15.5184 14.4393C15.2143 14.0842 15.2514 13.546 15.6011 13.2372C20.2918 9.09694 26.293 6.81677 32.4995 6.81677C46.7182 6.81677 58.286 18.5625 58.286 33C58.286 39.2854 56.0508 45.3669 51.992 50.124C51.826 50.3183 51.5922 50.4182 51.3573 50.4182Z" fill="#333333"/>
<path d="M32.5015 59.1832C18.2826 59.1832 6.71484 47.4372 6.71484 33C6.71484 28.2638 7.9793 23.6199 10.3714 19.5707C10.6098 19.167 11.1252 19.0361 11.5226 19.2782C11.92 19.5202 12.0489 20.0438 11.8106 20.4471C9.5749 24.2319 8.39318 28.5724 8.39318 33C8.39318 46.4979 19.2081 57.4792 32.5015 57.4792C38.4525 57.4792 44.1711 55.25 48.6045 51.2022C48.949 50.8877 49.4796 50.9161 49.7895 51.2661C50.0995 51.616 50.0713 52.1549 49.7266 52.4695C44.9846 56.7989 38.8674 59.1832 32.5015 59.1832Z" fill="#333333"/>
<path d="M17.43 44.265C17.1619 44.265 16.8986 44.135 16.7361 43.8933C14.5704 40.6723 13.4258 36.9056 13.4258 33C13.4258 22.3212 21.9819 13.6334 32.4991 13.6334C33.9327 13.6334 35.3625 13.7965 36.7488 14.1181C37.2006 14.2229 37.4832 14.6798 37.38 15.1385C37.277 15.5973 36.8268 15.8843 36.375 15.7795C35.1111 15.4862 33.807 15.3376 32.4991 15.3376C22.9074 15.3376 15.1041 23.2609 15.1041 33C15.1041 36.5612 16.1477 39.9959 18.1223 42.9325C18.3836 43.3212 18.2851 43.8514 17.9024 44.1167C17.7577 44.2171 17.5929 44.265 17.43 44.265Z" fill="#333333"/>
<path d="M32.5014 52.3666C27.0661 52.3666 21.8706 49.9934 18.2471 45.8553C17.9393 45.5038 17.9704 44.9651 18.3168 44.6524C18.6632 44.3398 19.1935 44.3713 19.5015 44.7231C22.8068 48.4976 27.5451 50.6626 32.5014 50.6626C36.9918 50.6626 41.2569 48.9233 44.5112 45.7652C47.755 42.6173 49.6601 38.3908 49.8757 33.8638C49.898 33.3938 50.2894 33.0302 50.7545 33.054C51.2174 33.0767 51.5745 33.4763 51.552 33.9463C51.3156 38.9114 49.2269 43.5464 45.6708 46.9973C42.1028 50.4596 37.4258 52.3666 32.5014 52.3666Z" fill="#333333"/>
<path d="M50.6507 32.0975C50.2227 32.0975 49.8572 31.7667 49.8163 31.3255C49.2676 25.426 45.8513 20.2258 40.6779 17.415C40.2692 17.1929 40.1151 16.6765 40.3338 16.2616C40.5527 15.8466 41.061 15.6903 41.4697 15.9122C47.1406 18.9935 50.8855 24.6956 51.4872 31.1651C51.5307 31.6338 51.192 32.0492 50.7306 32.0936C50.7038 32.0961 50.6771 32.0975 50.6507 32.0975Z" fill="#333333"/>
<path d="M32.5006 45.5498C25.6853 45.5498 20.1406 39.9199 20.1406 32.9998C20.1406 26.0797 25.6852 20.4499 32.5006 20.4499C39.3158 20.4499 44.8604 26.0797 44.8604 33C44.8604 39.9201 39.3156 45.5498 32.5006 45.5498ZM32.5006 22.1542C26.6106 22.1542 21.819 27.0196 21.819 33C21.819 38.9804 26.6106 43.8458 32.5006 43.8458C38.3904 43.8458 43.182 38.9804 43.182 33C43.182 27.0196 38.3902 22.1542 32.5006 22.1542Z" fill="#333333"/>
<path d="M40.1487 45.8294C39.874 45.8294 39.6049 45.6927 39.4441 45.4415C39.1917 45.047 39.302 44.5192 39.6907 44.2628C43.4641 41.7733 45.7171 37.5629 45.7171 32.9998C45.7171 31.3907 45.4398 29.8175 44.8929 28.3236C44.7314 27.8826 44.9526 27.3919 45.387 27.228C45.8212 27.0644 46.3043 27.2885 46.466 27.7297C47.0826 29.4141 47.3954 31.1873 47.3954 32.9996C47.3954 38.1418 44.8569 42.8865 40.6052 45.6917C40.4639 45.7851 40.3055 45.8294 40.1487 45.8294Z" fill="#333333"/>
<path d="M32.5017 48.1252C27.0876 48.1252 22.0922 45.1356 19.4648 40.3229C19.24 39.9112 19.3865 39.3928 19.7919 39.1646C20.197 38.9366 20.7079 39.0852 20.9326 39.4967C23.2643 43.7679 27.6973 46.4211 32.5017 46.4211C34.101 46.4211 35.6637 46.1344 37.1465 45.5692C37.5804 45.4039 38.0643 45.6269 38.2271 46.0675C38.3899 46.508 38.1703 46.9993 37.7363 47.1646C36.0644 47.8021 34.3031 48.1252 32.5017 48.1252Z" fill="#333333"/>
<path d="M18.902 37.4795C18.5296 37.4795 18.1895 37.2259 18.0908 36.8432C17.7688 35.5947 17.6055 34.3016 17.6055 33C17.6055 26.7549 21.4678 21.0702 27.2163 18.8546C27.6498 18.6874 28.1342 18.9088 28.2987 19.3488C28.4631 19.7888 28.2453 20.2808 27.8119 20.4478C22.711 22.4141 19.2838 27.4584 19.2838 33.0001C19.2838 34.1562 19.4286 35.3042 19.7143 36.4115C19.8318 36.8667 19.5634 37.3325 19.1151 37.4517C19.044 37.4705 18.9723 37.4795 18.902 37.4795Z" fill="#333333"/>
<path d="M30.8265 19.6786C30.4071 19.6786 30.0447 19.3599 29.9942 18.9265C29.9396 18.4593 30.2686 18.0354 30.7288 17.9802C31.3124 17.91 31.9078 17.8744 32.4986 17.8744C32.962 17.8744 33.3378 18.256 33.3378 18.7265C33.3378 19.197 32.962 19.5785 32.4986 19.5785C31.9735 19.5785 31.4444 19.6102 30.926 19.6724C30.8926 19.6765 30.8594 19.6786 30.8265 19.6786Z" fill="#333333"/>
<path d="M43.7929 25.3519C43.5365 25.3519 43.2832 25.2329 43.1184 25.0076C41.2813 22.495 38.6307 20.7038 35.6554 19.9635C35.2052 19.8515 34.9296 19.3902 35.0399 18.9332C35.1502 18.4761 35.6047 18.1968 36.0546 18.3083C39.409 19.1426 42.3961 21.161 44.466 23.9918C44.7422 24.3696 44.6645 24.9033 44.2924 25.1838C44.1422 25.297 43.9668 25.3519 43.7929 25.3519Z" fill="#333333"/>
<path d="M55.0075 14.6002C57.2834 14.6002 59.1284 12.7269 59.1284 10.416C59.1284 8.10509 57.2834 6.23175 55.0075 6.23175C52.7317 6.23175 50.8867 8.10509 50.8867 10.416C50.8867 12.7269 52.7317 14.6002 55.0075 14.6002Z" fill="#F24125"/>
<path d="M12.1629 21.1721C13.7005 21.1721 14.947 19.9065 14.947 18.3452C14.947 16.784 13.7005 15.5184 12.1629 15.5184C10.6254 15.5184 9.37891 16.784 9.37891 18.3452C9.37891 19.9065 10.6254 21.1721 12.1629 21.1721Z" fill="#F9911E"/>
<path d="M53.1645 61.803C55.594 61.803 57.5635 59.8033 57.5635 57.3364C57.5635 54.8696 55.594 52.8698 53.1645 52.8698C50.7351 52.8698 48.7656 54.8696 48.7656 57.3364C48.7656 59.8033 50.7351 61.803 53.1645 61.803Z" fill="#53AEF9"/>
<path opacity="0.25" d="M57.5651 57.3369C57.5651 59.8028 55.5947 61.8035 53.1662 61.8035C51.2327 61.8035 49.5913 60.5373 49.0039 58.7786C49.4487 58.9354 49.927 59.0189 50.4238 59.0189C52.854 59.0189 54.8227 57.0199 54.8227 54.5523C54.8227 54.0479 54.7405 53.5622 54.5861 53.1106C56.3181 53.7086 57.5651 55.3735 57.5651 57.3369Z" fill="black"/>
<path opacity="0.25" d="M55.4927 6.23175C57.5009 6.23175 59.1302 7.88615 59.1302 9.92517C59.1302 11.5486 58.099 12.9267 56.6667 13.4199C56.7944 13.0465 56.8624 12.6448 56.8624 12.2277C56.8624 10.1871 55.2344 8.53424 53.2249 8.53424C52.8141 8.53424 52.4187 8.60326 52.0508 8.73294C52.538 7.27879 53.8939 6.23175 55.4927 6.23175Z" fill="black"/>
<path opacity="0.25" d="M9.37891 18.2779C9.37891 16.7544 10.5962 15.5184 12.0966 15.5184C13.2911 15.5184 14.3052 16.3006 14.668 17.3872C14.3933 17.2904 14.0977 17.2387 13.7908 17.2387C12.2893 17.2387 11.073 18.4737 11.073 19.9983C11.073 20.31 11.1239 20.6099 11.2192 20.889C10.1493 20.5194 9.37891 19.4908 9.37891 18.2779Z" fill="black"/>
<path d="M12.1623 22.0242C10.1644 22.0242 8.53906 20.3739 8.53906 18.3454C8.53906 16.3168 10.1644 14.6665 12.1623 14.6665C14.1602 14.6665 15.7855 16.3168 15.7855 18.3454C15.7855 20.3739 14.1602 22.0242 12.1623 22.0242ZM12.1623 16.3707C11.0898 16.3707 10.2174 17.2565 10.2174 18.3454C10.2174 19.4342 11.0898 20.32 12.1623 20.32C13.2347 20.32 14.1071 19.4342 14.1071 18.3454C14.1071 17.2565 13.2347 16.3707 12.1623 16.3707Z" fill="#333333"/>
<path d="M39.0493 18.1119C37.5769 18.1119 36.3789 16.8957 36.3789 15.4006C36.3789 13.9056 37.5769 12.6891 39.0493 12.6891C40.5217 12.6891 41.7197 13.9056 41.7197 15.4006C41.7197 16.8957 40.5217 18.1119 39.0493 18.1119ZM39.0493 14.3933C38.5023 14.3933 38.0572 14.8451 38.0572 15.4006C38.0572 15.956 38.5022 16.4078 39.0493 16.4078C39.5964 16.4078 40.0414 15.956 40.0414 15.4006C40.0412 14.8451 39.5963 14.3933 39.0493 14.3933Z" fill="#333333"/>
<path d="M53.1639 62.6549C50.2756 62.6549 47.9258 60.269 47.9258 57.3362C47.9258 54.4033 50.2756 52.0175 53.1639 52.0175C56.0521 52.0175 58.402 54.4033 58.402 57.3362C58.402 60.269 56.0521 62.6549 53.1639 62.6549ZM53.1639 53.7218C51.2011 53.7218 49.6041 55.3434 49.6041 57.3364C49.6041 59.3294 51.2011 60.9509 53.1639 60.9509C55.1267 60.9509 56.7236 59.3294 56.7236 57.3364C56.7236 55.3434 55.1267 53.7218 53.1639 53.7218Z" fill="#333333"/>
<path d="M55.0108 15.4523C52.2758 15.4523 50.0508 13.1931 50.0508 10.416C50.0508 7.6389 52.2758 5.3797 55.0108 5.3797C57.7456 5.3797 59.9708 7.6389 59.9708 10.416C59.9708 13.1931 57.7458 15.4523 55.0108 15.4523ZM55.0108 7.08386C53.2012 7.08386 51.7291 8.57857 51.7291 10.416C51.7291 12.2533 53.2012 13.7481 55.0108 13.7481C56.8202 13.7481 58.2924 12.2534 58.2924 10.416C58.2924 8.57857 56.8204 7.08386 55.0108 7.08386Z" fill="#333333"/>
</g>
<defs>
<clipPath id="clip0_649_11388">
<rect width="65" height="66" fill="white"/>
</clipPath>
</defs>
</svg>
