<svg width="24" height="24" viewBox="0 0 24 24" fill="none" xmlns="http://www.w3.org/2000/svg">
<path d="M6.89663 18.1618C8.2815 19.3099 10.0597 20 11.9992 20C16.4174 20 19.9992 16.4183 19.9992 12C19.9992 11.431 19.9397 10.8758 19.8268 10.3404M6.89663 18.1618C5.12658 16.6944 3.99916 14.4789 3.99916 12C3.99916 7.58172 7.58088 4 11.9992 4C15.8484 4 19.0627 6.71853 19.8268 10.3404M6.89663 18.1618C8.85216 17.7147 11.1786 16.7828 13.525 15.4281C16.2554 13.8517 18.4763 12.0125 19.8268 10.3404M6.89663 18.1618C4.46746 18.7171 2.61062 18.5243 1.99867 17.4644C1.36836 16.3726 2.19534 14.5969 3.99902 12.709M19.8268 10.3404C21.0786 8.79041 21.5826 7.38405 21.0512 6.46374C20.5124 5.53051 19.0086 5.26939 16.9987 5.59929" stroke="white" stroke-width="2" stroke-linecap="round" stroke-linejoin="round"/>
</svg>
