<svg width="24" height="24" viewBox="0 0 24 24" fill="none" xmlns="http://www.w3.org/2000/svg">
<path d="M4 11.4517V16.7997C4 17.9197 4 18.4797 4.218 18.9087C4.41 19.2847 4.715 19.5907 5.092 19.7817C5.519 19.9997 6.079 19.9997 7.197 19.9997H16.803C17.921 19.9997 18.48 19.9997 18.907 19.7817C19.2835 19.5904 19.5898 19.2848 19.782 18.9087C20 18.4807 20 17.9217 20 16.8037V11.4517C20 10.9177 20 10.6507 19.935 10.4017C19.8775 10.1816 19.7828 9.97295 19.655 9.78473C19.51 9.57173 19.31 9.39473 18.907 9.04373L14.107 4.84373C13.361 4.19073 12.987 3.86373 12.567 3.73973C12.197 3.62973 11.803 3.62973 11.432 3.73973C11.012 3.86373 10.64 4.18973 9.894 4.84173L5.093 9.04373C4.691 9.39573 4.49 9.57173 4.346 9.78373C4.2178 9.97221 4.12276 10.1812 4.065 10.4017C4 10.6497 4 10.9177 4 11.4517Z" stroke="#9E9E9E" stroke-width="2" stroke-linecap="round" stroke-linejoin="round"/>
</svg>
