<svg width="669" height="778" viewBox="0 0 669 778" fill="none" xmlns="http://www.w3.org/2000/svg">
<path d="M112.916 714.35L107.223 710.44C65.2662 674.369 34.0185 627.504 16.8771 574.937C7.02069 544.711 2 513.123 2 481.336V417.633C2 377.456 11.8169 337.886 30.5994 302.355C48.4589 268.569 73.9251 239.381 104.995 217.085L116.477 208.845C139.814 192.098 165.165 177.76 193.122 171.104C203.388 168.66 212.915 166.91 222.563 165.413C272.774 157.622 324.317 155.568 374.274 164.852C408.747 171.259 437.474 180.365 471.508 198.249C472.785 198.919 474.047 199.573 475.295 200.208C557.23 241.939 620.436 301.72 639.915 391.471C645.003 414.938 647.574 438.881 647.574 462.892V467.789V505.877C647.574 521.314 650.96 536.565 657.504 550.554L657.844 551.288C662.228 562.474 665.174 574.17 666.606 586.094L666.648 586.446V597.198C666.648 606.521 664.623 615.732 660.708 624.193C658.807 628.318 656.471 632.221 653.742 635.854L649.041 642.112L642.439 650.169L635.836 658.225L631.569 662.485C626.111 667.935 620.172 672.886 613.828 677.269L598.422 688.256L583.016 699.242L566.877 709.497L534.148 725.594L490.148 743.094L452.148 756.594C434.731 761.809 409.148 766.094 382.262 772.094L340.648 775.594C319.148 775.594 269.648 769.094 239.148 763.094L220.789 759.531C210.722 757.578 200.882 754.597 191.423 750.637L139.895 729.059C130.422 725.093 121.382 720.164 112.916 714.35Z" fill="#BCDB7A" stroke="#455D11" stroke-width="3"/>
<path d="M298.829 564.763C320.612 527.093 288.201 467.694 226.436 432.09C164.672 396.487 96.9438 398.163 75.1607 435.832C53.3775 473.502 85.7885 532.902 147.553 568.505C209.317 604.108 277.045 602.433 298.829 564.763Z" fill="#455D11" stroke="#455D11" stroke-width="3"/>
<path d="M444.668 576.022C421.74 545.887 443.208 491.08 492.618 453.606C542.028 416.133 600.668 410.184 623.596 440.319C646.523 470.454 625.055 525.261 575.645 562.734C526.236 600.208 467.595 606.157 444.668 576.022Z" fill="#455D11" stroke="#455D11" stroke-width="3"/>
<path d="M394.338 584.981C399.2 584.981 403.142 581.046 403.142 576.191C403.142 571.337 399.2 567.402 394.338 567.402C389.477 567.402 385.535 571.337 385.535 576.191C385.535 581.046 389.477 584.981 394.338 584.981Z" fill="#455D11" stroke="#455D11" stroke-width="2"/>
<path d="M485.585 213.973C484.559 217.043 486.22 220.362 489.294 221.386C492.369 222.41 495.693 220.752 496.719 217.682L485.585 213.973ZM586.039 101.566C586.039 118.825 600.054 132.817 617.337 132.817C634.627 132.817 648.642 118.825 648.642 101.566C648.642 84.3066 634.627 70.3151 617.337 70.3151C600.054 70.3151 586.039 84.3066 586.039 101.566ZM496.719 217.682C500.912 205.133 503.412 196.321 504.805 190.156L493.355 187.577C492.083 193.21 489.715 201.612 485.585 213.973L496.719 217.682ZM614.556 107.871L618.153 107.369L616.527 95.7627L612.93 96.2648L614.556 107.871ZM557.989 122.74C575.07 114.411 594.848 110.624 614.556 107.871L612.93 96.2648C593.04 99.0429 571.689 103.017 552.838 112.209L557.989 122.74ZM504.805 190.156C511.746 159.429 529.685 136.542 557.989 122.74L552.838 112.209C521.292 127.592 501.068 153.431 493.355 187.577L504.805 190.156Z" fill="#455D11"/>
<path d="M168.957 289.687C169.297 292.906 172.186 295.239 175.409 294.9C178.632 294.56 180.97 291.676 180.629 288.458L168.957 289.687ZM293.094 31.2511C293.094 48.5106 307.107 62.5019 324.394 62.5019C341.681 62.5019 355.695 48.5106 355.695 31.2511C355.695 13.9916 341.681 0 324.394 0C307.107 0 293.094 13.9916 293.094 31.2511ZM180.629 288.458C179.079 273.785 177.201 260.618 175.55 248.569C173.892 236.472 172.47 225.54 171.774 215.093C170.391 194.352 171.883 175.688 180.206 154.66L169.29 150.353C160.161 173.417 158.598 193.914 160.062 215.872C160.789 226.774 162.265 238.076 163.92 250.157C165.582 262.284 167.43 275.238 168.957 289.687L180.629 288.458ZM322.576 37.4294L325.224 37.0518L323.564 25.4504L320.916 25.8281L322.576 37.4294ZM250.426 57.8629C271.858 45.7877 297.042 41.0714 322.576 37.4294L320.916 25.8281C295.342 29.4757 268.188 34.3994 244.658 47.657L250.426 57.8629ZM180.206 154.66C195.507 116 216.005 77.2575 250.426 57.8629L244.658 47.657C206.388 69.2199 184.664 111.508 169.29 150.353L180.206 154.66Z" fill="#455D11"/>
</svg>
