<svg width="66" height="65" viewBox="0 0 66 65" fill="none" xmlns="http://www.w3.org/2000/svg">
<path d="M60.9399 35.0826C60.9399 37.1777 60.7151 39.2217 60.2862 41.1908C48.3558 46.2497 41.1972 44.8478 25.3736 33.7863C15.9788 27.2183 7.18749 30.8157 1.92969 34.1304C2.14242 27.61 4.53784 21.6313 8.4172 16.8807C13.5799 14.8521 21.598 13.3088 28.6425 18.8055C37.5634 25.7687 48.3039 29.4786 58.7763 24.1352C60.172 27.5147 60.9399 31.2109 60.9399 35.0826Z" fill="#F9911E"/>
<path d="M60.2861 41.1908C59.0547 46.8663 56.1404 51.9269 52.0811 55.8429C50.1216 57.7353 47.8922 59.362 45.457 60.6582C37.1102 56.2943 30.723 48.9103 22.7793 47.6584C15.849 46.5665 10.7693 49.3396 7.54372 52.1603C4.00335 47.3654 1.91406 41.4633 1.91406 35.0826C1.91406 34.7641 1.91925 34.4473 1.92963 34.1305C7.18744 30.8158 15.9787 27.2183 25.3736 33.7864C41.1971 44.8479 48.3557 46.2497 60.2861 41.1908Z" fill="#E27F1B"/>
<path d="M49.1331 11.8252C53.3826 14.9696 56.7448 19.216 58.777 24.1352C48.3047 29.4786 37.5642 25.7687 28.6432 18.8055C21.5988 13.3088 13.5807 14.8521 8.41797 16.8807C13.3835 10.7998 20.7842 6.72884 29.1604 6.10201C29.9093 6.0458 30.6651 6.01685 31.4278 6.01685C38.071 6.01685 44.2005 8.17838 49.1331 11.8252Z" fill="#F9A24B"/>
<path d="M45.4602 60.6582C41.2868 62.8844 36.5081 64.1483 31.4301 64.1483C30.9355 64.1483 30.4443 64.1364 29.9565 64.1125C20.7433 63.6663 12.6421 59.0587 7.54688 52.1602C10.7725 49.3395 15.8521 46.5665 22.7824 47.6583C30.7262 48.9103 37.1134 56.2942 45.4602 60.6582Z" fill="#F9A24B"/>
<path d="M52.2828 14.5148C43.6489 16.8824 31.4297 6.01685 31.4297 6.01685C38.0729 6.01685 44.2023 8.17838 49.135 11.8252C50.2488 12.6479 51.3004 13.5473 52.2828 14.5148Z" fill="#E27F1B"/>
<path d="M50.9029 27.3878C50.4691 27.3878 50.0952 27.0672 50.0447 26.6327C49.9906 26.1653 50.3311 25.7432 50.8057 25.6897C53.3967 25.3981 55.9445 24.6207 58.378 23.379C58.8014 23.1626 59.3239 23.3256 59.5435 23.7433C59.7632 24.161 59.5977 24.6749 59.1734 24.8914C56.5525 26.2288 53.803 27.0667 51.0018 27.382C50.9688 27.3859 50.9358 27.3878 50.9029 27.3878Z" fill="#333333"/>
<path d="M47.7626 27.5189C47.7542 27.5189 47.7459 27.5187 47.7376 27.5186C47.0015 27.4981 46.2511 27.4429 45.5071 27.3542C45.033 27.2976 44.695 26.8733 44.7525 26.4063C44.8099 25.9394 45.2412 25.6069 45.7148 25.6631C46.4064 25.7456 47.1032 25.797 47.7864 25.8159C48.2638 25.8292 48.6399 26.221 48.6265 26.6911C48.6133 27.153 48.2288 27.5189 47.7626 27.5189Z" fill="#333333"/>
<path d="M42.3993 26.7647C42.3287 26.7647 42.2569 26.7561 42.1855 26.7381C37.5242 25.5701 32.7879 23.1258 28.1079 19.4728C21.4775 14.2995 13.916 15.638 8.73998 17.6717C8.2967 17.8463 7.79323 17.6331 7.61647 17.1963C7.43954 16.7594 7.65556 16.2639 8.09919 16.0897C13.6993 13.8891 21.903 12.4583 29.182 18.1379C33.6696 21.6409 38.188 23.979 42.6115 25.0874C43.0745 25.2034 43.3542 25.6669 43.2364 26.1228C43.1371 26.5081 42.7851 26.7647 42.3993 26.7647Z" fill="#333333"/>
<path d="M48.674 44.8529C47.1495 44.8529 45.6486 44.6882 44.113 44.3668C38.9474 43.2855 33.3739 40.4213 24.8758 34.4808C20.8918 31.6953 16.6304 30.5568 12.2097 31.0974C11.7358 31.1554 11.3038 30.8239 11.245 30.3572C11.1861 29.8905 11.5225 29.465 11.9966 29.4071C16.8597 28.8128 21.5295 30.0521 25.8772 33.0917C34.059 38.8112 39.6202 41.6847 44.4727 42.7006C49.2606 43.7028 53.7443 43.0387 59.9473 40.4084C60.3857 40.2226 60.8949 40.4218 61.0836 40.8538C61.2725 41.2858 61.0699 41.7869 60.6313 41.9729C56.0179 43.9292 52.282 44.8529 48.674 44.8529Z" fill="#333333"/>
<path d="M1.93217 34.9823C1.64715 34.9823 1.368 34.8436 1.203 34.5897C0.945471 34.1935 1.06273 33.6668 1.4652 33.4132C3.78832 31.9486 6.12216 30.8576 8.4017 30.1707C8.85847 30.0331 9.34188 30.286 9.48162 30.7359C9.62137 31.1857 9.36436 31.6618 8.90776 31.7994C6.77852 32.4411 4.58806 33.4666 2.39742 34.8477C2.25335 34.9388 2.09181 34.9823 1.93217 34.9823Z" fill="#333333"/>
<path d="M45.4582 61.51C45.3214 61.51 45.1825 61.478 45.0533 61.4104C41.8295 59.7247 38.9154 57.6129 36.0973 55.5705C35.7858 55.3448 35.4755 55.1199 35.1661 54.8966C34.7809 54.6187 34.6975 54.0857 34.9798 53.7062C35.2622 53.3267 35.8032 53.2447 36.1886 53.5227C36.4989 53.7467 36.81 53.9722 37.1222 54.1984C39.8901 56.2045 42.7524 58.2788 45.8643 59.9058C46.286 60.1264 46.4465 60.642 46.2225 61.0574C46.0675 61.3458 45.7678 61.51 45.4582 61.51Z" fill="#333333"/>
<path d="M7.54482 53.0119C7.30614 53.0119 7.06867 52.9153 6.8978 52.7258C6.58077 52.374 6.61311 51.8358 6.97026 51.5234C10.1609 48.7331 15.5171 45.6518 22.9166 46.8174C26.8277 47.4338 30.2125 49.4266 33.0075 51.2946C33.4027 51.5588 33.5056 52.0884 33.2375 52.4776C32.9693 52.8668 32.4321 52.9685 32.0363 52.7041C29.3986 50.9412 26.2199 49.0631 22.6434 48.4994C15.9118 47.4389 11.0298 50.2513 8.11885 52.7971C7.95403 52.9412 7.74908 53.0119 7.54482 53.0119Z" fill="#333333"/>
<path d="M49.624 15.708C46.3547 15.708 42.5186 14.4293 38.1743 11.8857C34.0142 9.45009 30.9753 6.76223 30.8478 6.64896C30.4932 6.33384 30.4654 5.79541 30.7854 5.44623C31.1053 5.09722 31.652 5.06945 32.0068 5.38457C32.1256 5.49001 43.974 15.9081 52.0487 13.6943C52.5075 13.5681 52.9856 13.8329 53.1136 14.2862C53.2417 14.7393 52.9726 15.2089 52.5124 15.3351C51.6059 15.5838 50.6424 15.708 49.624 15.708Z" fill="#333333"/>
<path d="M58.3229 12.1979C61.5043 12.1979 64.0833 9.658 64.0833 6.52482C64.0833 3.39163 61.5043 0.851685 58.3229 0.851685C55.1415 0.851685 52.5625 3.39163 52.5625 6.52482C52.5625 9.658 55.1415 12.1979 58.3229 12.1979Z" fill="#FCBC1D"/>
<path opacity="0.25" d="M52.5625 6.52445C52.5625 9.65791 55.1407 12.1983 58.3224 12.1983C58.8162 12.1983 59.2966 12.1371 59.7534 12.0221C57.2646 11.395 55.4245 9.17178 55.4245 6.52462C55.4245 3.87747 57.2646 1.6553 59.7534 1.0283C59.2966 0.913152 58.8162 0.852173 58.3224 0.852173C55.1407 0.852003 52.5625 3.39117 52.5625 6.52445Z" fill="black"/>
<path d="M58.3207 13.0496C54.6675 13.0496 51.6953 10.1226 51.6953 6.5248C51.6953 2.92701 54.6675 0 58.3207 0C61.9738 0 64.9458 2.92701 64.9458 6.5248C64.9458 10.1226 61.9738 13.0496 58.3207 13.0496ZM58.3207 1.70334C55.6212 1.70334 53.4249 3.86623 53.4249 6.5248C53.4249 9.18337 55.621 11.3463 58.3207 11.3463C61.02 11.3463 63.2163 9.18337 63.2163 6.5248C63.2163 3.86623 61.0201 1.70334 58.3207 1.70334Z" fill="#333333"/>
<path opacity="0.25" d="M33.9533 62.5666C30.5011 61.3658 27.343 59.5483 24.6172 57.2505C18.2888 51.9191 14.278 43.9986 14.278 35.1548C14.278 27.3127 17.4327 20.1944 22.5591 14.9669C25.3834 12.0866 28.8062 9.77854 32.6302 8.23872C34.2248 7.59742 35.8897 7.09101 37.6092 6.73008C35.6152 6.3114 33.5477 6.08911 31.427 6.08911C27.4767 6.08911 23.7097 6.85391 20.2662 8.23872C16.4422 9.77854 13.0195 12.0866 10.1951 14.9669C5.06875 20.1944 1.91406 27.3127 1.91406 35.1548C1.91406 43.9986 5.92487 51.9191 12.2533 57.2505C14.979 59.5483 18.1372 61.3658 21.5893 62.5666C24.6662 63.638 27.9783 64.2206 31.427 64.2206C33.5465 64.2206 35.6138 63.9991 37.6073 63.5808C36.3584 63.3185 35.1382 62.9792 33.9533 62.5666Z" fill="black"/>
<path d="M44.3484 14.1252C44.1917 14.1252 44.0329 14.0832 43.8902 13.9953C42.8696 13.3655 41.7949 12.8041 40.6954 12.3262C40.2586 12.1362 40.0607 11.6334 40.2535 11.203C40.4464 10.7729 40.9563 10.5777 41.394 10.7678C42.5689 11.2786 43.7176 11.8789 44.8083 12.5517C45.213 12.8014 45.3356 13.3269 45.0821 13.7256C44.9179 13.9835 44.6364 14.1252 44.3484 14.1252Z" fill="white"/>
<path d="M48.3454 54.6207C48.1143 54.6207 47.884 54.53 47.7138 54.3509C47.3874 54.0073 47.4057 53.4684 47.7544 53.1471C52.8349 48.4658 55.7489 41.8642 55.7489 35.0349C55.7489 28.1665 52.9522 21.7735 47.8739 17.0335C47.5273 16.7098 47.5126 16.1709 47.8412 15.8294C48.1699 15.488 48.7171 15.4736 49.0637 15.797C54.4901 20.8621 57.4784 27.6942 57.4784 35.0349C57.4784 42.3338 54.3649 49.3889 48.936 54.3909C48.7693 54.5447 48.5571 54.6207 48.3454 54.6207Z" fill="white"/>
<path d="M44.7056 57.4247C44.4224 57.4247 44.145 57.2879 43.9793 57.0367C43.7194 56.6422 43.8332 56.1147 44.2339 55.8587C44.675 55.5768 45.1127 55.2773 45.5352 54.9685C45.919 54.6881 46.4605 54.7673 46.7451 55.1448C47.0297 55.5226 46.9495 56.0559 46.5659 56.3363C46.1145 56.6662 45.6468 56.9863 45.1757 57.2874C45.0302 57.3804 44.8668 57.4247 44.7056 57.4247Z" fill="white"/>
<path d="M59.5249 6.46469C59.4678 6.46469 59.4108 6.45958 59.3554 6.44766C59.3003 6.43744 59.2465 6.4204 59.1946 6.39996C59.141 6.37782 59.0908 6.35227 59.0441 6.32161C58.9974 6.29095 58.9524 6.25518 58.9127 6.216C58.7518 6.05589 58.6602 5.83786 58.6602 5.61302C58.6602 5.38988 58.7518 5.17015 58.9127 5.01174C58.9523 4.97257 58.9974 4.9368 59.0441 4.90443C59.091 4.87377 59.1411 4.84822 59.1946 4.82608C59.2465 4.80564 59.3001 4.78861 59.3554 4.77839C59.4678 4.75624 59.5822 4.75624 59.6944 4.77839C59.7498 4.78861 59.8036 4.80564 59.8554 4.82608C59.9073 4.84822 59.9575 4.87377 60.004 4.90443C60.0524 4.9368 60.0957 4.97257 60.1356 5.01174C60.177 5.05092 60.2116 5.0935 60.2446 5.1412C60.2757 5.18719 60.3017 5.23658 60.3224 5.28768C60.3449 5.33878 60.362 5.39329 60.3726 5.4461C60.3829 5.50231 60.3899 5.55852 60.3899 5.61302C60.3899 5.66923 60.3829 5.72544 60.3726 5.77995C60.362 5.83446 60.3449 5.88726 60.3224 5.93836C60.3017 5.98946 60.2755 6.04056 60.2446 6.08655C60.2117 6.13254 60.177 6.17683 60.1356 6.216C60.0958 6.25518 60.0526 6.29095 60.004 6.32161C59.9573 6.35227 59.9072 6.37782 59.8554 6.39996C59.8036 6.4204 59.7499 6.43744 59.6944 6.44766C59.6373 6.45958 59.582 6.46469 59.5249 6.46469Z" fill="#333333"/>
<path d="M57.7984 8.84936C57.7413 8.84936 57.6842 8.84425 57.6289 8.83233C57.5737 8.82211 57.5199 8.80507 57.468 8.78463C57.4144 8.76249 57.3642 8.73694 57.3176 8.70628C57.2709 8.67562 57.2259 8.63985 57.1861 8.60067C57.0253 8.44226 56.9336 8.22253 56.9336 7.99769C56.9336 7.94319 56.9388 7.88698 56.9509 7.83077C56.9614 7.77796 56.9786 7.72346 56.9993 7.67236C57.0218 7.62126 57.0477 7.57186 57.0789 7.52587C57.11 7.47817 57.1463 7.43559 57.1861 7.39641C57.2257 7.35724 57.2709 7.32147 57.3176 7.2891C57.3644 7.25844 57.4146 7.23289 57.468 7.21075C57.5199 7.19031 57.5735 7.17328 57.6289 7.16306C57.911 7.10685 58.2084 7.19712 58.4091 7.39641C58.4487 7.43559 58.485 7.47817 58.518 7.52587C58.5492 7.57186 58.5751 7.62126 58.5976 7.67236C58.6183 7.72346 58.6356 7.77796 58.646 7.83077C58.6579 7.88698 58.6633 7.94319 58.6633 7.99769C58.6633 8.22253 58.5699 8.44226 58.4091 8.60067C58.248 8.75908 58.0249 8.84936 57.7984 8.84936Z" fill="#333333"/>
<path d="M61.4414 8.84625C61.3205 8.84625 61.1978 8.82121 61.0808 8.76824C60.6468 8.57185 60.4567 8.06612 60.6562 7.63876C61.0469 6.8014 60.9887 5.82879 60.5007 5.03708C60.2528 4.63492 60.3829 4.11115 60.7912 3.86706C61.1994 3.62297 61.7314 3.75106 61.9793 4.15305C62.7657 5.42902 62.8587 6.99796 62.2278 8.35007C62.082 8.66212 61.7688 8.84625 61.4414 8.84625Z" fill="white"/>
<path d="M31.4284 65C30.9212 65 30.411 64.9876 29.912 64.9632C20.6982 64.517 12.2906 60.0331 6.84596 52.6612C3.05463 47.5267 1.05078 41.448 1.05078 35.0826C1.05078 34.7535 1.05614 34.4239 1.06687 34.1027C1.2796 27.5762 3.58888 21.4362 7.74463 16.3469C12.9936 9.91906 20.7755 5.87534 29.0953 5.25277C29.8701 5.19469 30.6553 5.16522 31.4283 5.16522C38.0602 5.16522 44.362 7.23273 49.6528 11.1441C50.7912 11.985 51.8813 12.9164 52.8924 13.9122C55.7946 16.767 58.0442 20.0985 59.5785 23.8144C61.0564 27.3927 61.8058 31.1839 61.8058 35.0826C61.8058 37.2041 61.5794 39.3193 61.1328 41.3693C59.8881 47.1066 56.9675 52.3221 52.6875 56.4511C50.6561 58.4129 48.3619 60.0806 45.8693 61.4073C41.4641 63.7576 36.4701 65 31.4284 65ZM31.4284 6.86856C30.6989 6.86856 29.9582 6.89632 29.2267 6.95134C21.3815 7.53848 14.0429 11.3521 9.09263 17.4146C5.17384 22.2136 2.99634 28.0034 2.79554 34.1579C2.78551 34.4611 2.7805 34.7721 2.7805 35.0828C2.7805 41.0859 4.67002 46.8181 8.24481 51.6595C13.38 58.6122 21.3086 62.8412 29.9974 63.2621C30.4686 63.2851 30.9499 63.2969 31.4284 63.2969C36.1833 63.2969 40.8925 62.1255 45.0465 59.9096C47.3977 58.6582 49.561 57.0856 51.4771 55.235C55.5142 51.3405 58.2683 46.4228 59.442 41.013C59.8631 39.0795 60.0766 37.0846 60.0766 35.0828C60.0766 31.4051 59.3701 27.83 57.9766 24.4564C56.5298 20.9524 54.4082 17.8105 51.6705 15.1176L51.6701 15.1173C50.7163 14.1783 49.6884 13.2998 48.6149 12.5068C43.6257 8.8182 37.6828 6.86856 31.4284 6.86856Z" fill="#333333"/>
</svg>
