<svg width="66" height="65" viewBox="0 0 66 65" fill="none" xmlns="http://www.w3.org/2000/svg">
<path d="M9.13541 14.4958C12.6016 14.4958 15.4114 11.7285 15.4114 8.31491C15.4114 4.90127 12.6016 2.13397 9.13541 2.13397C5.66925 2.13397 2.85938 4.90127 2.85938 8.31491C2.85938 11.7285 5.66925 14.4958 9.13541 14.4958Z" fill="#F9DAC5"/>
<path opacity="0.25" d="M2.85938 8.31457C2.85938 11.7285 5.66825 14.496 9.13469 14.496C9.67256 14.496 10.1962 14.4295 10.6937 14.3042C7.98224 13.6209 5.97741 11.1988 5.97741 8.31457C5.97741 5.43055 7.98206 3.00947 10.6937 2.3262C10.1962 2.20075 9.67256 2.13434 9.13469 2.13434C5.66825 2.13434 2.85938 4.90065 2.85938 8.31457Z" fill="black"/>
<path d="M9.13659 15.3743C5.18419 15.3743 1.96875 12.2074 1.96875 8.31491C1.96875 4.42239 5.18419 1.25549 9.13659 1.25549C13.089 1.25549 16.3046 4.42239 16.3046 8.31491C16.3046 12.2074 13.0892 15.3743 9.13659 15.3743ZM9.13659 3.01244C6.16787 3.01244 3.75273 5.39117 3.75273 8.31491C3.75273 11.2386 6.16805 13.6174 9.13659 13.6174C12.1053 13.6174 14.5206 11.2386 14.5206 8.31491C14.5206 5.39117 12.1053 3.01244 9.13659 3.01244Z" fill="#333333"/>
<path d="M63.4422 30.859C63.4422 31.7199 63.4047 32.5738 63.3315 33.4172H2.6692C2.59606 32.5738 2.55859 31.7199 2.55859 30.859C2.55859 28.6418 2.803 26.479 3.26862 24.3987H62.7321C63.1977 26.479 63.4422 28.6418 63.4422 30.859Z" fill="#F9DAC5"/>
<path d="M2.67188 33.4171H63.3342C63.2361 34.5697 63.072 35.7029 62.8436 36.8133H3.16247C2.93412 35.7029 2.76999 34.5697 2.67188 33.4171Z" fill="#F9A064"/>
<path d="M3.16016 36.8133H62.8413C62.1456 40.22 60.8611 43.4194 59.0985 46.3008H6.90294C5.14037 43.4194 3.85591 40.22 3.16016 36.8133Z" fill="#F9911E"/>
<path d="M62.733 24.3987H3.26953C3.83862 21.8406 4.74131 19.4037 5.92944 17.1355H60.0731C61.2613 19.4037 62.164 21.8406 62.733 24.3987Z" fill="#F9700B"/>
<path d="M60.0734 17.1355H5.92969C6.45774 16.1253 7.04467 15.1484 7.68155 14.2084H58.3215C58.9584 15.1484 59.5453 16.1253 60.0734 17.1355Z" fill="#F9DAC5"/>
<path d="M6.90234 46.3008H59.0979C58.0186 48.0683 56.7591 49.7163 55.3427 51.2203H10.6576C9.24114 49.7163 7.98165 48.0683 6.90234 46.3008Z" fill="#F9700B"/>
<path d="M58.3236 14.2084H7.68359C8.92881 12.3759 10.3738 10.6875 11.9865 9.17126H54.0206C55.6333 10.6875 57.0783 12.3759 58.3236 14.2084Z" fill="#E0AA86"/>
<path d="M10.6602 51.2203H55.3452C53.5809 53.1002 51.5739 54.7553 49.3725 56.1397H16.6329C14.4315 54.7553 12.4245 53.1002 10.6602 51.2203Z" fill="#E0AA86"/>
<path d="M54.0184 9.17127H11.9844C17.4487 4.03396 24.8504 0.878479 33.0014 0.878479C41.1524 0.878479 48.5541 4.03396 54.0184 9.17127Z" fill="#F9A064"/>
<path d="M16.6328 56.1397H49.3724C44.6466 59.1142 39.0289 60.8395 33.0026 60.8395C26.9763 60.8395 21.3586 59.1142 16.6328 56.1397Z" fill="#F9DAC5"/>
<path d="M54.0198 10.0497H11.9857C11.4932 10.0497 11.0938 9.65635 11.0938 9.17126C11.0938 8.68617 11.4932 8.29279 11.9857 8.29279H54.0198C54.5124 8.29279 54.9118 8.68617 54.9118 9.17126C54.9118 9.65635 54.5125 10.0497 54.0198 10.0497Z" fill="#333333"/>
<path d="M43.5443 15.0869H7.68105C7.18849 15.0869 6.78906 14.6935 6.78906 14.2084C6.78906 13.7233 7.18849 13.33 7.68105 13.33H43.5443C44.0369 13.33 44.4363 13.7233 44.4363 14.2084C44.4363 14.6935 44.0371 15.0869 43.5443 15.0869Z" fill="#333333"/>
<path d="M58.3234 15.0869H47.1146C46.6221 15.0869 46.2227 14.6935 46.2227 14.2084C46.2227 13.7233 46.6221 13.33 47.1146 13.33H58.3234C58.8159 13.33 59.2154 13.7233 59.2154 14.2084C59.2154 14.6935 58.8159 15.0869 58.3234 15.0869Z" fill="#333333"/>
<path d="M23.2981 18.014H5.93105C5.43849 18.014 5.03906 17.6206 5.03906 17.1355C5.03906 16.6504 5.43849 16.257 5.93105 16.257H23.2981C23.7906 16.257 24.1901 16.6504 24.1901 17.1355C24.1901 17.6206 23.7908 18.014 23.2981 18.014Z" fill="#333333"/>
<path d="M60.0721 18.014H26.1498C25.6572 18.014 25.2578 17.6206 25.2578 17.1355C25.2578 16.6504 25.6572 16.257 26.1498 16.257H60.0721C60.5647 16.257 60.9641 16.6504 60.9641 17.1355C60.9641 17.6206 60.5647 18.014 60.0721 18.014Z" fill="#333333"/>
<path d="M47.1134 37.6918H3.16152C2.66896 37.6918 2.26953 37.2984 2.26953 36.8133C2.26953 36.3282 2.66896 35.9348 3.16152 35.9348H47.1134C47.6059 35.9348 48.0053 36.3282 48.0053 36.8133C48.0053 37.2984 47.6061 37.6918 47.1134 37.6918Z" fill="#333333"/>
<path d="M62.8444 37.6918H50.4154C49.9229 37.6918 49.5234 37.2984 49.5234 36.8133C49.5234 36.3282 49.9229 35.9348 50.4154 35.9348H62.8444C63.3369 35.9348 63.7364 36.3282 63.7364 36.8133C63.7364 37.2984 63.3369 37.6918 62.8444 37.6918Z" fill="#333333"/>
<path d="M13.128 47.1793H6.90371C6.41115 47.1793 6.01172 46.7859 6.01172 46.3008C6.01172 45.8157 6.41115 45.4224 6.90371 45.4224H13.128C13.6206 45.4224 14.02 45.8157 14.02 46.3008C14.02 46.7859 13.6207 47.1793 13.128 47.1793Z" fill="#333333"/>
<path d="M59.0987 47.1793H35.9623C35.4697 47.1793 35.0703 46.7859 35.0703 46.3008C35.0703 45.8157 35.4697 45.4224 35.9623 45.4224H59.0987C59.5912 45.4224 59.9907 45.8157 59.9907 46.3008C59.9907 46.7859 59.5912 47.1793 59.0987 47.1793Z" fill="#333333"/>
<path d="M55.3427 52.0987H10.6576C10.1651 52.0987 9.76562 51.7054 9.76562 51.2203C9.76562 50.7352 10.1651 50.3418 10.6576 50.3418H55.3427C55.8352 50.3418 56.2346 50.7352 56.2346 51.2203C56.2346 51.7054 55.8352 52.0987 55.3427 52.0987Z" fill="#333333"/>
<path d="M39.5294 57.0182H16.6303C16.1377 57.0182 15.7383 56.6248 15.7383 56.1397C15.7383 55.6546 16.1377 55.2612 16.6303 55.2612H39.5294C40.0219 55.2612 40.4214 55.6546 40.4214 56.1397C40.4214 56.6248 40.0219 57.0182 39.5294 57.0182Z" fill="#333333"/>
<path d="M49.3708 57.0182H43.5443C43.0518 57.0182 42.6523 56.6248 42.6523 56.1397C42.6523 55.6546 43.0518 55.2612 43.5443 55.2612H49.3708C49.8634 55.2612 50.2628 55.6546 50.2628 56.1397C50.2628 56.6248 49.8634 57.0182 49.3708 57.0182Z" fill="#333333"/>
<path d="M40.0672 25.2772H3.27089C2.77834 25.2772 2.37891 24.8838 2.37891 24.3987C2.37891 23.9136 2.77834 23.5203 3.27089 23.5203H40.0672C40.5598 23.5203 40.9592 23.9136 40.9592 24.3987C40.9592 24.8838 40.5599 25.2772 40.0672 25.2772Z" fill="#333333"/>
<path d="M62.7354 25.2772H43.3686C42.876 25.2772 42.4766 24.8838 42.4766 24.3987C42.4766 23.9136 42.876 23.5203 43.3686 23.5203H62.7354C63.228 23.5203 63.6274 23.9136 63.6274 24.3987C63.6274 24.8838 63.228 25.2772 62.7354 25.2772Z" fill="#333333"/>
<path d="M20.0845 34.2956H2.66933C2.17678 34.2956 1.77734 33.9022 1.77734 33.4171C1.77734 32.932 2.17678 32.5386 2.66933 32.5386H20.0845C20.5771 32.5386 20.9765 32.932 20.9765 33.4171C20.9765 33.9022 20.5771 34.2956 20.0845 34.2956Z" fill="#333333"/>
<path d="M23.3334 34.2956C23.2763 34.2956 23.2174 34.2903 23.1603 34.278C23.1033 34.2675 23.0462 34.2499 22.9927 34.2288C22.9391 34.206 22.8874 34.1796 22.8392 34.148C22.7893 34.1164 22.7447 34.0795 22.7037 34.0391C22.5377 33.8757 22.4414 33.649 22.4414 33.4171C22.4414 33.1852 22.5377 32.9603 22.7037 32.7952C22.7447 32.7548 22.7893 32.7196 22.8392 32.6862C22.8874 32.6546 22.9391 32.6283 22.9927 32.6054C23.0462 32.5843 23.1033 32.5668 23.1603 32.5562C23.4494 32.4982 23.758 32.5914 23.9649 32.7952C24.006 32.8373 24.0434 32.8813 24.0755 32.9287C24.1076 32.9779 24.1344 33.0288 24.1576 33.0816C24.179 33.1343 24.1968 33.1887 24.2093 33.245C24.22 33.3029 24.2254 33.3592 24.2254 33.4171C24.2254 33.4751 24.22 33.5313 24.2093 33.5893C24.1968 33.6455 24.179 33.7 24.1576 33.7527C24.1344 33.8054 24.1076 33.8581 24.0755 33.9056C24.0434 33.953 24.006 33.9987 23.9649 34.0391C23.799 34.2025 23.5689 34.2956 23.3334 34.2956Z" fill="#333333"/>
<path d="M63.3314 34.2956H26.1498C25.6572 34.2956 25.2578 33.9022 25.2578 33.4171C25.2578 32.932 25.6572 32.5386 26.1498 32.5386H63.3314C63.824 32.5386 64.2234 32.932 64.2234 33.4171C64.2234 33.9022 63.824 34.2956 63.3314 34.2956Z" fill="#333333"/>
<path d="M46.3273 9.2412C46.1655 9.2412 46.0019 9.1978 45.8547 9.10715C44.8018 8.4576 43.693 7.87834 42.5593 7.38551C42.1087 7.18961 41.9046 6.67096 42.1035 6.22698C42.3026 5.78318 42.8291 5.58218 43.2799 5.77808C44.4915 6.30499 45.6765 6.92396 46.8016 7.61813C47.2191 7.8757 47.3456 8.41772 47.084 8.82902C46.9147 9.0952 46.6243 9.2412 46.3273 9.2412Z" fill="white"/>
<path d="M50.4468 51.0114C50.2086 51.0114 49.971 50.9179 49.7953 50.7331C49.4588 50.3787 49.4775 49.8228 49.8372 49.4914C55.0776 44.6628 58.0833 37.8534 58.0833 30.8091C58.0833 23.7244 55.1986 17.1302 49.9605 12.241C49.603 11.9072 49.5878 11.3513 49.9267 10.999C50.2655 10.6469 50.8303 10.632 51.1877 10.9656C56.7849 16.1899 59.8672 23.237 59.8672 30.8089C59.8672 38.3376 56.6557 45.6147 51.056 50.7742C50.884 50.9328 50.6651 51.0114 50.4468 51.0114Z" fill="white"/>
<path d="M46.6977 53.9037C46.4056 53.9037 46.1195 53.7626 45.9486 53.5035C45.6804 53.0965 45.7978 52.5524 46.2112 52.2884C46.6659 51.9976 47.1176 51.6887 47.5534 51.37C47.9489 51.081 48.5079 51.1623 48.8013 51.552C49.095 51.9417 49.0122 52.4918 48.6165 52.781C48.1507 53.1213 47.6683 53.4515 47.1824 53.7619C47.0323 53.8578 46.8641 53.9037 46.6977 53.9037Z" fill="white"/>
<path d="M30.509 41.0105C31.9962 41.9208 32.9062 43.1425 32.9062 44.4859C32.9062 47.2998 28.9126 49.581 23.9863 49.581C19.06 49.581 15.0664 47.2998 15.0664 44.4859C15.0664 41.672 19.06 39.3907 23.9863 39.3907C25.2736 39.3907 26.4972 39.5466 27.6026 39.8268" fill="#EDC3A6"/>
<path d="M23.9877 50.4595C18.4857 50.4595 14.1758 47.8355 14.1758 44.4859C14.1758 41.1363 18.4857 38.5123 23.9877 38.5123C25.3214 38.5123 26.613 38.6683 27.8266 38.9761C28.3036 39.0972 28.5909 39.5761 28.4679 40.0459C28.3452 40.5157 27.8592 40.7986 27.3817 40.6775C26.3132 40.4066 25.1713 40.2692 23.9878 40.2692C19.6362 40.2692 15.9599 42.2003 15.9599 44.4859C15.9599 46.7715 19.6362 48.7026 23.9878 48.7026C28.3395 48.7026 32.0157 46.7715 32.0157 44.4859C32.0157 43.5059 31.3139 42.5366 30.0398 41.7566C29.6215 41.5005 29.4932 40.9588 29.7531 40.5468C30.0132 40.135 30.5629 40.0083 30.9816 40.2645C32.7989 41.377 33.7997 42.8762 33.7997 44.4861C33.7995 47.8355 29.4896 50.4595 23.9877 50.4595Z" fill="#333333"/>
<path d="M23.9869 46.4185C20.4447 46.4185 18.4851 44.9883 18.2852 44.4859C18.4853 43.9834 20.4447 42.5532 23.9869 42.5532C27.5292 42.5532 29.4887 43.9834 29.6887 44.4859C29.4887 44.9883 27.5292 46.4185 23.9869 46.4185Z" fill="#F9700B"/>
<path d="M23.9881 47.297C20.3728 47.297 17.8715 45.8507 17.4559 44.8066L17.3281 44.4859L17.4559 44.1653C17.8715 43.1211 20.3728 41.6748 23.9881 41.6748C27.6033 41.6748 30.1046 43.1211 30.5203 44.1653L30.648 44.4859L30.5203 44.8066C30.1048 45.8507 27.6035 47.297 23.9881 47.297ZM19.5784 44.4859C20.2847 44.9227 21.7351 45.5401 23.9882 45.5401C26.2414 45.5401 27.6918 44.9227 28.3981 44.4859C27.6918 44.0491 26.2414 43.4318 23.9882 43.4318C21.7351 43.4318 20.2847 44.0491 19.5784 44.4859Z" fill="#333333"/>
<path opacity="0.25" d="M35.6062 59.2073C32.0454 57.9687 28.7879 56.094 25.9763 53.7239C19.4487 48.2247 15.3117 40.0549 15.3117 30.9328C15.3117 22.8438 18.5657 15.5015 23.8534 10.1095C26.7666 7.13848 30.2971 4.75782 34.2415 3.16954C35.8863 2.50805 37.6036 1.98571 39.3772 1.61341C37.3204 1.18138 35.1879 0.952271 33.0004 0.952271C28.9258 0.952271 25.0403 1.74114 21.4884 3.16954C17.544 4.75782 14.0135 7.13848 11.1003 10.1095C5.81257 15.5015 2.55859 22.8438 2.55859 30.9328C2.55859 40.0549 6.69564 48.2247 13.2232 53.7239C16.0348 56.094 19.2923 57.9687 22.8531 59.2073C26.0268 60.3125 29.4431 60.9133 33.0004 60.9133C35.1866 60.9133 37.319 60.6849 39.3752 60.2534C38.0868 59.9829 36.8284 59.6329 35.6062 59.2073Z" fill="black"/>
<path d="M33.0019 61.718C27.007 61.718 21.1804 60.0451 16.1517 56.8799C13.8921 55.4589 11.8238 53.7554 10.0043 51.8166C8.54609 50.2684 7.24557 48.5645 6.13968 46.7536C4.28881 43.7278 2.99239 40.4414 2.28683 36.9865C2.05206 35.8452 1.88205 34.6686 1.78179 33.4906C1.70632 32.6212 1.66797 31.7354 1.66797 30.859C1.66797 28.6138 1.9138 26.3767 2.39886 24.2097C2.97598 21.6157 3.89723 19.0998 5.13727 16.7328C5.67032 15.7127 6.27705 14.6991 6.9398 13.7209C8.21481 11.8446 9.70478 10.1005 11.3689 8.53595C17.2237 3.03144 24.9064 0 33.0019 0C41.0972 0 48.7799 3.03144 54.6349 8.53577C56.2989 10.1002 57.7888 11.8445 59.0631 13.7198C59.7266 14.699 60.3331 15.7125 60.8667 16.7335C62.1062 19.0998 63.0277 21.6157 63.605 24.2107C64.0898 26.377 64.3357 28.6138 64.3357 30.859C64.3357 31.7348 64.2975 32.6207 64.2219 33.4918C64.1216 34.6686 63.9516 35.8452 63.7166 36.9876C63.0113 40.4414 61.7148 43.7278 59.8636 46.7541C58.7581 48.5645 57.4574 50.2683 55.9983 51.8176C54.1799 53.7552 52.1113 55.4589 49.8516 56.8801C44.8234 60.0451 38.9968 61.718 33.0019 61.718ZM33.0019 1.75695C25.3674 1.75695 18.1221 4.61567 12.6009 9.80675C11.0308 11.2829 9.62522 12.9281 8.42335 14.697C7.79843 15.6194 7.2263 16.5756 6.72322 17.5377C5.55418 19.7695 4.68574 22.1409 4.14163 24.5869C3.68422 26.6309 3.4523 28.741 3.4523 30.8592C3.4523 31.6857 3.48852 32.5213 3.5597 33.3425C3.65425 34.4544 3.81445 35.5631 4.03566 36.639C4.70091 39.8967 5.92311 42.9946 7.6682 45.8477C8.71129 47.5556 9.93741 49.1622 11.3134 50.6231C13.0305 52.4526 14.9811 54.0593 17.1122 55.3995C21.8537 58.3839 27.3481 59.9613 33.0019 59.9613C38.6557 59.9613 44.1502 58.3839 48.8913 55.3997C51.0228 54.0591 52.9734 52.4526 54.6892 50.6241C56.0661 49.1622 57.2924 47.5558 58.3353 45.8482C60.0807 42.9946 61.3029 39.8967 61.968 36.6402C62.1894 35.5631 62.3496 34.4544 62.4441 33.3439C62.5155 32.5209 62.5515 31.6855 62.5515 30.8592C62.5515 28.7405 62.3196 26.6306 61.8624 24.5879L61.8622 24.5869C61.3181 22.1412 60.4496 19.7697 59.281 17.5384C58.7777 16.5754 58.2054 15.6194 57.5798 14.6962C56.3784 12.9281 54.9728 11.2828 53.4029 9.80675C47.8815 4.61567 40.6364 1.75695 33.0019 1.75695Z" fill="#333333"/>
<path d="M53.8909 64.1215C58.6503 64.1215 62.5084 60.3218 62.5084 55.6346C62.5084 50.9474 58.6503 47.1476 53.8909 47.1476C49.1316 47.1476 45.2734 50.9474 45.2734 55.6346C45.2734 60.3218 49.1316 64.1215 53.8909 64.1215Z" fill="#F9911E"/>
<path opacity="0.25" d="M45.2734 55.6341C45.2734 60.3216 49.1304 64.1219 53.89 64.1219C54.6286 64.1219 55.3476 64.0305 56.0308 63.8583C52.3077 62.9201 49.555 59.5942 49.555 55.6341C49.555 51.6739 52.3077 48.3498 56.0308 47.4116C55.3476 47.2394 54.6286 47.148 53.89 47.148C49.1304 47.148 45.2734 50.9465 45.2734 55.6341Z" fill="black"/>
<path d="M58.2202 60.7749C57.9919 60.7749 57.7637 60.6891 57.5894 60.5176C57.241 60.1745 57.241 59.6184 57.5894 59.2753C58.8175 58.0658 59.3531 56.3365 59.0221 54.6495C58.9287 54.1731 59.245 53.7123 59.7286 53.6202C60.2124 53.528 60.6802 53.8398 60.7737 54.316C61.2171 56.5766 60.4984 58.8949 58.8509 60.5175C58.6768 60.6891 58.4484 60.7749 58.2202 60.7749Z" fill="white"/>
<path d="M53.8923 65C48.6487 65 44.3828 60.7986 44.3828 55.6346C44.3828 50.4704 48.6488 46.2692 53.8923 46.2692C59.1358 46.2692 63.4018 50.4706 63.4018 55.6346C63.4018 60.7986 59.1358 65 53.8923 65ZM53.8923 48.0261C49.6325 48.0261 46.1668 51.4393 46.1668 55.6346C46.1668 59.8298 49.6325 63.243 53.8923 63.243C58.1521 63.243 61.6178 59.8298 61.6178 55.6346C61.6178 51.4392 58.1523 48.0261 53.8923 48.0261Z" fill="#333333"/>
<path d="M58.4154 52.5989C58.3566 52.5989 58.2977 52.5937 58.2406 52.5814C58.1835 52.5708 58.1282 52.5533 58.0747 52.5322C58.0212 52.5093 57.9694 52.483 57.9195 52.4514C57.8713 52.418 57.8249 52.3828 57.7839 52.3424C57.618 52.179 57.5234 51.9524 57.5234 51.7205C57.5234 51.4886 57.618 51.2637 57.7839 51.1003C57.8249 51.0581 57.8713 51.0212 57.9195 50.9896C57.9694 50.958 58.0212 50.9316 58.0747 50.9088C58.1282 50.8877 58.1835 50.8701 58.2406 50.8596C58.5314 50.8016 58.84 50.8947 59.047 51.1003C59.2129 51.2637 59.3074 51.4886 59.3074 51.7205C59.3074 51.9524 59.2129 52.1773 59.047 52.3424C58.881 52.5058 58.6509 52.5989 58.4154 52.5989Z" fill="white"/>
<path d="M50.7982 52.9192C50.7412 52.9192 50.6823 52.914 50.6252 52.9017C50.5681 52.8911 50.511 52.8735 50.4575 52.8525C50.404 52.8296 50.3522 52.8033 50.3041 52.7716C50.2541 52.74 50.2095 52.7031 50.1685 52.6627C50.0026 52.4993 49.9062 52.2727 49.9062 52.0408C49.9062 51.8088 50.0026 51.5822 50.1685 51.4188C50.2095 51.3784 50.2541 51.3415 50.3041 51.3099C50.3522 51.2782 50.404 51.2519 50.4575 51.229C50.511 51.208 50.5681 51.1904 50.6252 51.1798C50.7394 51.157 50.8589 51.157 50.9731 51.1798C51.0302 51.1904 51.0855 51.208 51.1408 51.229C51.1943 51.2519 51.246 51.2782 51.2942 51.3099C51.3424 51.3415 51.3887 51.3784 51.4298 51.4188C51.5957 51.5822 51.6902 51.8088 51.6902 52.0408C51.6902 52.2727 51.5957 52.4993 51.4298 52.6627C51.3887 52.7031 51.3424 52.74 51.2942 52.7716C51.246 52.8033 51.1943 52.8296 51.1408 52.8525C51.0855 52.8735 51.0302 52.8911 50.9731 52.9017C50.916 52.914 50.8571 52.9192 50.7982 52.9192Z" fill="#333333"/>
<path d="M54.0092 58.6592C53.9521 58.6592 53.8932 58.6522 53.8361 58.6416C53.779 58.6311 53.722 58.6135 53.6684 58.5907C53.6149 58.5696 53.5632 58.5415 53.515 58.5098C53.4651 58.4782 53.4205 58.4413 53.3794 58.4009C53.2135 58.2375 53.1172 58.0109 53.1172 57.7807C53.1172 57.5488 53.2135 57.3222 53.3794 57.1588C53.4205 57.1183 53.4651 57.0815 53.515 57.0498C53.5632 57.0182 53.6149 56.9901 53.6684 56.969C53.722 56.9462 53.779 56.9304 53.8361 56.9181C54.1251 56.8618 54.4338 56.955 54.6407 57.1588C54.8066 57.3222 54.9012 57.5488 54.9012 57.7807C54.9012 58.0109 54.8066 58.2375 54.6407 58.4009C54.4748 58.5643 54.2447 58.6592 54.0092 58.6592Z" fill="#333333"/>
<path d="M50.5639 59.1265C50.505 59.1265 50.4479 59.1213 50.389 59.1107C50.3319 59.0984 50.2766 59.0826 50.2231 59.0598C50.1696 59.0387 50.1179 59.0106 50.0697 58.979C50.0198 58.9473 49.9752 58.9104 49.9341 58.87C49.7664 58.7066 49.6719 58.48 49.6719 58.2481C49.6719 58.1918 49.6772 58.1339 49.6897 58.0776C49.7004 58.0214 49.7183 57.9652 49.7397 57.9125C49.7629 57.8598 49.7896 57.8088 49.8217 57.7614C49.8556 57.7122 49.8913 57.6683 49.9341 57.6279C49.9752 57.5875 50.0198 57.5506 50.0697 57.5189C50.1179 57.4873 50.1696 57.4592 50.2231 57.4381C50.2766 57.4153 50.3319 57.3995 50.389 57.3872C50.6798 57.3292 50.9867 57.4241 51.1954 57.6279C51.2364 57.6683 51.2739 57.7122 51.306 57.7614C51.3381 57.8088 51.3649 57.8598 51.3881 57.9125C51.4095 57.9652 51.4273 58.0214 51.438 58.0776C51.4505 58.1339 51.4558 58.1918 51.4558 58.2481C51.4558 58.48 51.3613 58.7066 51.1954 58.87C51.0295 59.0334 50.7993 59.1265 50.5639 59.1265Z" fill="#333333"/>
</svg>
