<svg width="600" height="90" viewBox="0 0 600 90" fill="none" xmlns="http://www.w3.org/2000/svg">
<rect width="600" height="90" rx="12" fill="#FEE500"/>
<g clip-path="url(#clip0_651_11601)">
<path fill-rule="evenodd" clip-rule="evenodd" d="M210 28.2C200.058 28.2 192 34.4259 192 42.1046C192 46.8801 195.117 51.09 199.863 53.5939L197.866 60.889C197.69 61.5336 198.427 62.0474 198.993 61.6739L207.747 55.8964C208.485 55.9677 209.236 56.0093 210 56.0093C219.941 56.0093 228 49.7836 228 42.1046C228 34.4259 219.941 28.2 210 28.2" fill="black"/>
</g>
<path d="M258.43 32.93C258.4 42.08 254.23 48.2 246.58 52.22L244.6 50C248.47 48.23 251.71 45.38 253.54 41.69L245.71 42.53L245.23 39.86L254.56 39.17C254.89 37.97 255.13 36.74 255.22 35.42H246.58V32.93H258.43ZM265.66 30.14V40.58H269.8V43.13H265.66V56.87H262.57V30.14H265.66ZM284.387 32.93C284.357 42.08 280.187 48.2 272.537 52.22L270.557 50C274.427 48.23 277.667 45.38 279.497 41.69L271.667 42.53L271.187 39.86L280.517 39.17C280.847 37.97 281.087 36.74 281.177 35.42H272.537V32.93H284.387ZM291.617 30.14V40.58H295.757V43.13H291.617V56.87H288.527V30.14H291.617ZM320.964 53.45H296.814V50.99H307.314V46.43C302.364 45.95 299.214 43.13 299.214 39.14C299.214 34.73 303.084 31.79 308.874 31.79C314.754 31.79 318.594 34.73 318.594 39.14C318.594 43.16 315.384 45.98 310.374 46.46V50.99H320.964V53.45ZM315.504 39.17C315.504 36.32 312.894 34.31 308.874 34.31C304.944 34.31 302.304 36.32 302.304 39.17C302.304 41.99 304.944 43.91 308.874 43.91C312.864 43.91 315.504 41.99 315.504 39.17ZM352.462 46.55H344.212V51.02H354.802V53.48H330.652V51.02H341.152V46.55H333.742V37.91H348.622V34.46H333.652V32H351.682V40.4H336.832V44.06H352.462V46.55ZM380.759 52.97H356.609V50.48H380.759V52.97ZM377.609 33.02C377.609 40.1 377.159 45.11 376.439 48.62L373.409 48.23C374.069 45.56 374.519 39.77 374.519 35.45H359.399V33.02H377.609ZM404.556 49.52H401.496V30.14H404.556V49.52ZM405.186 56.09H386.886V47.69H389.946V53.63H405.186V56.09ZM397.056 38.66C397.056 42.47 394.296 45.2 390.216 45.2C386.136 45.2 383.316 42.47 383.316 38.69C383.316 34.88 386.106 32.12 390.216 32.12C394.296 32.12 397.056 34.85 397.056 38.66ZM393.996 38.66C393.996 36.32 392.556 34.67 390.216 34.67C387.936 34.67 386.406 36.38 386.406 38.66C386.406 40.85 387.936 42.59 390.216 42.59C392.556 42.59 393.996 40.85 393.996 38.66Z" fill="black" fill-opacity="0.85"/>
<defs>
<clipPath id="clip0_651_11601">
<rect width="35.9999" height="36" fill="white" transform="translate(192 27)"/>
</clipPath>
</defs>
</svg>
